<svg width="300" height="300" viewBox="0 0 300 300" fill="none" xmlns="http://www.w3.org/2000/svg">
<path d="M131.787 91.2883C131.787 91.2883 78.5132 99.6402 82.553 175.702C82.5677 175.984 76.3933 180.091 75.9096 180.53C71.6042 184.431 67.9919 189.428 66.4123 195.273C60.7876 216.087 80.8974 237.534 97.1596 243.226C103.234 245.352 109.654 246.384 116.088 246.572C157.908 247.792 213.276 221.16 216.119 169.148C216.221 167.282 216.246 165.414 216.198 163.55C215.946 153.674 213.567 144.057 209.982 135.126C209.984 135.127 186.709 77.2826 131.787 91.2883Z" fill="#643D19"/>
<g style="mix-blend-mode:multiply" opacity="0.5">
<path d="M81.2037 176.504C81.7808 177.921 82.357 179.731 82.518 180.766C83.2053 185.206 81.6894 189.791 79.0557 193.087C76.5551 196.216 72.9832 198.245 69.5244 199.01C68.3567 199.269 66.9428 199.401 65.7062 199.443C67.005 186.585 77.4537 178.871 81.2037 176.504Z" fill="#FF5C3C"/>
</g>
<g style="mix-blend-mode:multiply" opacity="0.5">
<path d="M156.3 210.299C146.404 208.165 140.259 197.718 142.575 186.965C144.892 176.212 154.792 169.224 164.688 171.358C174.584 173.492 180.729 183.938 178.412 194.692C176.096 205.445 166.196 212.432 156.3 210.299Z" fill="#FF5C3C"/>
</g>
<path opacity="0.3" d="M107.854 180.22C107.854 180.22 99.4036 172.164 92.8611 179.738L107.854 180.22Z" fill="#1D0C00"/>
<path d="M186.652 220.363C214.786 234.491 240.318 199.068 232.138 179.155C226.92 166.453 211.709 165.465 202.895 177.067C197.693 183.914 193.484 192.666 191.095 201.039" fill="#643D19"/>
<path opacity="0.3" d="M209.822 188.753C206.203 192.443 203.293 197.915 199.717 200.968C200.378 195.86 201.432 190.405 203.909 185.801C206.423 181.126 210.996 177.275 215.652 177.592C221.423 177.986 226.174 184.72 226.785 190.825C226.42 187.172 219.085 184.699 216.285 185.045C211.902 193.323 210.205 209.64 210.205 209.64C206.552 200.403 208.031 193.138 209.822 188.753Z" fill="#1D0C00"/>
<mask id="mask0" mask-type="alpha" maskUnits="userSpaceOnUse" x="40" y="103" width="69" height="101">
<path d="M84.0203 149.138C86.94 127.377 97.8077 111.516 108.554 109.554L61.109 103.058L40.4279 176.339L65.9751 203.744C64.3531 190.752 76.6535 180.061 83.0065 176.339C82.1955 170.98 83.3445 155.972 84.0203 149.138Z" fill="#C4C4C4"/>
</mask>
<g mask="url(#mask0)">
<path d="M70.6544 167.696C73.2412 145.68 93.3682 133.932 103.209 132.053C101.231 121.347 97.0259 122.005 88.6368 123.669C59.3266 129.481 54.5818 155.173 54.8599 168.265C65.7683 169.865 70.1022 169.809 70.6544 167.696Z" fill="#351700"/>
<ellipse rx="7.88275" ry="4.13995" transform="matrix(1.01788 -0.0478973 0.157336 0.970823 62.8675 167.989)" fill="#451E00"/>
<path opacity="0.6" fill-rule="evenodd" clip-rule="evenodd" d="M70.7352 167.055C73.6328 145.452 93.4642 133.914 103.209 132.053C103.506 129.426 96.2268 130.611 88.3135 133.541C67.9698 141.073 62.3605 152.38 62.6385 165.472C62.6703 165.476 62.702 165.481 62.7335 165.486C62.8047 167.72 63.0166 170.678 63.5183 172.008C67.9497 171.799 71.2504 169.831 70.8906 167.611C70.8602 167.423 70.8079 167.237 70.7352 167.055Z" fill="#240F00"/>
<path d="M80.4015 174.784C82.3608 152.405 101.904 139.837 111.564 137.606C109.323 126.832 105.192 127.638 96.9589 129.603C68.1948 136.466 64.2052 162.64 64.8323 175.887C75.6388 177.143 79.9135 176.941 80.4015 174.784Z" fill="#351700"/>
<ellipse rx="7.81964" ry="4.16797" transform="matrix(1.01116 -0.0831476 0.180179 0.971187 72.7253 175.34)" fill="#451E00"/>
<path opacity="0.6" fill-rule="evenodd" clip-rule="evenodd" d="M80.4641 174.132C82.7412 152.161 101.998 139.816 111.564 137.606C111.786 134.936 104.635 136.379 96.9059 139.61C77.0355 147.916 71.8053 159.552 72.4324 172.799C72.4639 172.802 72.4952 172.806 72.5264 172.81C72.6569 175.07 72.9457 178.058 73.4765 179.388C77.8434 179.029 81.0472 176.925 80.6324 174.69C80.5973 174.5 80.5408 174.314 80.4641 174.132Z" fill="#240F00"/>
<path d="M89.3041 190.915C85.2483 168.111 100.137 150.059 108.542 145.094C103.626 135.021 99.9921 136.997 92.8453 141.292C67.8753 156.296 71.0383 183.449 75.1024 196.44C85.4908 194.614 89.4168 193.198 89.3041 190.915Z" fill="#351700"/>
<ellipse rx="7.74996" ry="4.1982" transform="matrix(0.927598 -0.37358 0.419818 0.907608 82.3048 193.651)" fill="#451E00"/>
<path opacity="0.6" fill-rule="evenodd" clip-rule="evenodd" d="M89.1905 190.249C85.5377 167.76 100.219 150.011 108.541 145.094C108.047 142.376 101.77 145.844 95.4245 151.255C79.1116 165.163 77.3005 178.218 81.3645 191.208C81.3947 191.203 81.4248 191.197 81.4549 191.192C82.1701 193.402 83.224 196.29 84.0674 197.461C88.0377 195.862 90.4672 192.86 89.4938 190.755C89.4113 190.577 89.3098 190.408 89.1905 190.249Z" fill="#240F00"/>
<path opacity="0.5" d="M58.2781 148.189C58.1917 147.525 60.0523 144.035 60.9933 142.374L74.8722 147.665L86.7714 159.469C86.518 164.004 85.154 173.423 81.7259 174.823C78.2977 176.223 74.6162 175.7 72.4991 175.181C71.6446 174.101 70.1972 165.105 71.1788 156.636C66.3451 156.074 58.386 149.019 58.2781 148.189Z" fill="#220F01"/>
<path d="M69.416 142.124C73.3038 120.3 94.0921 109.77 104.027 108.479C102.687 97.6743 98.4506 98.0809 89.9777 99.2427C60.3745 103.302 54.1144 128.667 53.6156 141.753C64.4098 143.998 68.7394 144.2 69.416 142.124Z" fill="#351700"/>
<ellipse rx="7.8827" ry="4.13999" transform="matrix(1.01894 0.0126966 0.0994827 0.978451 61.6245 141.953)" fill="#451E00"/>
<path opacity="0.6" fill-rule="evenodd" clip-rule="evenodd" d="M69.5346 141.488C73.7084 120.096 94.189 109.757 104.027 108.479C104.479 105.874 97.1427 106.624 89.0695 109.078C68.315 115.388 62.045 126.341 61.5462 139.427C61.5776 139.433 61.609 139.44 61.6401 139.446C61.5787 141.681 61.6148 144.646 62.0367 146.004C66.4727 146.059 69.8843 144.29 69.6569 142.053C69.6376 141.863 69.5965 141.675 69.5346 141.488Z" fill="#240F00"/>
<path d="M78.7262 149.778C82.0092 127.555 102.263 116.172 112.038 114.519C110.44 103.63 106.269 104.19 97.9339 105.661C68.8134 110.803 63.2786 136.693 63.119 149.954C73.8319 151.85 78.1111 151.903 78.7262 149.778Z" fill="#351700"/>
<ellipse rx="7.81954" ry="4.16804" transform="matrix(1.01432 -0.0228915 0.122262 0.980167 71.03 149.877)" fill="#451E00"/>
<path opacity="0.6" fill-rule="evenodd" clip-rule="evenodd" d="M78.8268 149.131C82.4029 127.334 102.358 116.156 112.038 114.518C112.418 111.866 105.194 112.881 97.287 115.647C76.959 122.757 71.048 134.062 70.8883 147.323C70.9195 147.328 70.9506 147.334 70.9816 147.339C70.9777 149.604 71.0888 152.604 71.5398 153.962C75.9203 153.863 79.2432 151.954 78.9618 149.698C78.9379 149.507 78.8925 149.318 78.8268 149.131Z" fill="#240F00"/>
<path d="M89.0879 166.41C86.3916 143.405 102.325 126.271 111.009 121.814C106.699 111.466 102.955 113.223 95.5658 117.085C69.75 130.578 71.2971 157.872 74.5835 171.081C85.0619 169.876 89.0649 168.696 89.0879 166.41Z" fill="#351700"/>
<ellipse rx="7.74961" ry="4.1984" transform="matrix(0.94816 -0.317793 0.365233 0.930916 81.9389 168.725)" fill="#451E00"/>
<path opacity="0.6" fill-rule="evenodd" clip-rule="evenodd" d="M89.0138 165.739C86.7012 143.073 102.409 126.227 111.009 121.814C110.676 119.072 104.205 122.16 97.5494 127.184C80.4404 140.098 77.8582 153.022 81.1447 166.231C81.1752 166.227 81.2056 166.224 81.2359 166.221C81.8189 168.469 82.6996 171.415 83.472 172.634C87.5302 171.273 90.1334 168.421 89.2865 166.262C89.2148 166.08 89.1234 165.905 89.0138 165.739Z" fill="#240F00"/>
<path opacity="0.5" d="M65.1639 111.381L67.5969 108.945V107.118L78.9512 110.569L95.5771 133.304L84.8311 147.311C77.5319 148.61 71.5169 146.093 69.4217 144.672L74.4906 125.793C69.4217 124.575 68.8135 119.501 68.6107 118.689C68.4485 118.039 69.4893 115.576 70.03 114.426C68.8946 113.939 66.3128 112.193 65.1639 111.381Z" fill="#220F01"/>
</g>
<path d="M80.2548 112.944C93.8645 95.4582 117.159 95.8556 126.548 99.3552C130.398 89.1731 126.462 87.5535 118.426 84.6229C90.3513 74.3837 72.9926 93.894 66.4528 105.235C74.9535 112.263 78.6888 114.464 80.2548 112.944Z" fill="#351700"/>
<ellipse rx="7.88453" ry="4.13919" transform="matrix(0.895085 0.487126 -0.3681 0.912056 73.4429 109.153)" fill="#451E00"/>
<path opacity="0.6" fill-rule="evenodd" clip-rule="evenodd" d="M80.6555 112.437C94.3173 95.4661 117.25 95.8896 126.548 99.355C128.161 97.2623 121.323 94.4982 113.038 92.8975C91.7412 88.7825 81.0908 95.5411 74.551 106.882C74.5758 106.902 74.6004 106.922 74.625 106.943C73.529 108.891 72.1789 111.531 71.9196 112.928C75.8173 115.049 79.6591 115.078 80.5006 112.993C80.5719 112.817 80.6233 112.631 80.6555 112.437Z" fill="#240F00"/>
<path d="M84.9219 124.063C98.1828 105.941 121.402 105.335 130.818 108.439C134.48 98.0625 130.529 96.6082 122.472 94.0161C94.3193 84.9596 77.3575 105.273 71.0358 116.927C79.6275 123.609 83.3875 125.655 84.9219 124.063Z" fill="#351700"/>
<ellipse rx="7.82115" ry="4.16737" transform="matrix(0.907611 0.453514 -0.348738 0.924186 78.0691 120.555)" fill="#451E00"/>
<path opacity="0.6" fill-rule="evenodd" clip-rule="evenodd" d="M85.3121 123.538C98.6338 105.93 121.493 105.365 130.818 108.439C132.39 106.271 125.528 103.794 117.245 102.546C95.9519 99.3387 85.4553 106.576 79.1337 118.23C79.1587 118.249 79.1836 118.269 79.2084 118.288C78.1498 120.289 76.8498 122.994 76.6155 124.407C80.5359 126.366 84.3647 126.229 85.1674 124.102C85.2353 123.922 85.2834 123.733 85.3121 123.538Z" fill="#240F00"/>
<path d="M84.1829 142.477C92.5196 120.871 114.597 113.16 124.356 113.274C125.366 102.109 121.236 101.914 112.901 101.878C83.7789 101.752 72.4267 126.615 69.1773 139.833C79.0064 143.663 83.097 144.489 84.1829 142.477Z" fill="#351700"/>
<ellipse rx="7.74893" ry="4.19901" transform="matrix(0.98681 0.161883 -0.110813 0.993841 76.781 141.185)" fill="#451E00"/>
<path opacity="0.6" fill-rule="evenodd" clip-rule="evenodd" d="M84.4307 141.849C92.949 120.721 114.693 113.16 124.356 113.274C125.34 110.693 118.176 110.402 109.949 111.736C88.798 115.166 80.4909 125.39 77.2414 138.608C77.27 138.619 77.2985 138.631 77.3269 138.642C76.7946 140.903 76.2006 143.92 76.3158 145.358C80.5389 146.051 84.1708 144.744 84.4278 142.44C84.4495 142.245 84.4502 142.047 84.4307 141.849Z" fill="#240F00"/>
<path d="M225.488 163.557C220.457 138.923 196.407 125.012 185.013 122.517C186.255 110.67 191.11 111.575 200.828 113.771C234.782 121.443 242.621 150.262 243.543 164.836C231.262 166.173 226.318 165.933 225.488 163.557Z" fill="#351700"/>
<ellipse rx="9.21074" ry="4.46585" transform="matrix(-0.996693 -0.0812574 -0.081067 0.996709 234.391 164.201)" fill="#451E00"/>
<path opacity="0.6" fill-rule="evenodd" clip-rule="evenodd" d="M225.335 162.839C219.989 138.653 196.295 124.988 185.013 122.517C184.426 119.577 192.834 121.195 202.13 124.782C226.029 134.005 233.491 146.831 234.413 161.406C234.377 161.41 234.342 161.414 234.306 161.418C234.437 163.904 234.475 167.191 234.029 168.652C228.959 168.239 225.011 165.911 225.211 163.452C225.228 163.244 225.27 163.04 225.335 162.839Z" fill="#240F00"/>
<path d="M208.564 175.247C214.143 150.731 197.977 128.118 188.63 121.135C194.647 110.859 198.695 113.69 206.64 119.708C234.399 140.735 229.651 170.222 224.479 183.877C212.743 180.016 208.339 177.754 208.564 175.247Z" fill="#351700"/>
<ellipse rx="9.21325" ry="4.46465" transform="matrix(-0.873978 -0.485965 -0.485088 0.874465 216.407 179.514)" fill="#451E00"/>
<path opacity="0.6" fill-rule="evenodd" clip-rule="evenodd" d="M208.721 174.53C213.828 150.292 197.885 128.05 188.629 121.135C189.307 118.215 196.298 123.165 203.284 130.276C221.245 148.556 222.751 163.323 217.579 176.978C217.545 176.967 217.511 176.955 217.477 176.944C216.57 179.263 215.249 182.272 214.241 183.418C209.793 180.946 207.158 177.193 208.354 175.037C208.455 174.854 208.578 174.685 208.721 174.53Z" fill="#240F00"/>
<path d="M191.223 179.765C197.227 155.35 181.458 132.459 172.233 125.313C178.429 115.144 182.427 118.045 190.266 124.201C217.655 145.708 212.395 175.108 206.986 188.671C195.319 184.606 190.954 182.268 191.223 179.765Z" fill="#351700"/>
<ellipse rx="9.2134" ry="4.46456" transform="matrix(-0.865375 -0.501125 -0.50024 0.865887 198.99 184.168)" fill="#451E00"/>
<path opacity="0.6" fill-rule="evenodd" clip-rule="evenodd" d="M191.392 179.051C196.92 154.905 181.367 132.389 172.233 125.313C172.961 122.406 179.865 127.476 186.726 134.708C204.366 153.299 205.615 168.09 200.206 181.652C200.172 181.641 200.139 181.629 200.105 181.617C199.158 183.92 197.785 186.906 196.756 188.034C192.353 185.484 189.783 181.686 191.016 179.551C191.121 179.37 191.246 179.203 191.392 179.051Z" fill="#240F00"/>
<path d="M175.929 183.007C185.982 159.966 174.318 134.728 166.438 126.12C174.266 117.15 177.715 120.688 184.398 128.085C207.747 153.932 197.583 182.013 189.955 194.46C179.146 188.474 175.241 185.428 175.929 183.007Z" fill="#351700"/>
<ellipse rx="9.21514" ry="4.46373" transform="matrix(-0.767816 -0.64067 -0.639778 0.76856 182.838 188.666)" fill="#451E00"/>
<path opacity="0.6" fill-rule="evenodd" clip-rule="evenodd" d="M176.217 182.332C185.754 159.475 174.241 134.644 166.437 126.12C167.648 123.379 173.592 129.548 179.13 137.84C193.365 159.157 192.091 173.945 184.463 186.393C184.432 186.376 184.4 186.358 184.369 186.341C183.046 188.449 181.187 191.159 179.982 192.096C176.074 188.836 174.185 184.657 175.762 182.762C175.896 182.601 176.048 182.458 176.217 182.332Z" fill="#240F00"/>
<path d="M179.112 173.903C179.761 172.604 180.194 170.114 180.329 169.032C192.292 155.025 217.474 120.841 220.069 122.14C222.664 123.439 230.342 131.004 232.234 133.102L222.502 139.394C223.719 143.657 223.313 150.965 220.069 152.589C217.474 153.888 211.418 154.078 208.715 154.01L207.701 160.506C207.363 161.588 205.998 163.916 203.24 164.566C200.483 165.215 195.874 164.295 193.914 163.754C194.076 165.378 192.494 170.114 191.683 172.279C187.953 174.066 181.748 174.106 179.112 173.903Z" fill="#220F01"/>
<path d="M216.233 129.673C204.78 107.296 177.882 100.362 166.238 101.021C164.257 89.2754 169.175 88.8417 179.126 88.3444C213.891 86.6072 229.171 112.26 233.968 126.051C222.497 130.64 217.67 131.739 216.233 129.673Z" fill="#351700"/>
<ellipse rx="9.21107" ry="4.4657" transform="matrix(-0.981849 0.189663 0.189232 0.981933 224.982 127.9)" fill="#451E00"/>
<path opacity="0.6" fill-rule="evenodd" clip-rule="evenodd" d="M215.894 129.023C204.257 107.162 177.769 100.368 166.238 101.021C164.884 98.3473 173.417 97.6449 183.334 98.6016C208.828 101.061 219.457 111.41 224.254 125.201C224.22 125.215 224.187 125.228 224.154 125.241C224.947 127.602 225.865 130.758 225.827 132.285C220.833 133.25 216.405 132.068 215.938 129.647C215.899 129.442 215.884 129.233 215.894 129.023Z" fill="#240F00"/>
<path d="M203.066 145.483C201.865 120.369 180.228 102.932 169.351 98.7175C172.391 87.2015 177.05 88.8402 186.317 92.5014C218.696 105.293 222.031 134.974 220.711 149.518C208.371 148.954 203.521 147.959 203.066 145.483Z" fill="#351700"/>
<ellipse rx="9.21127" ry="4.4656" transform="matrix(-0.972425 -0.233214 -0.232695 0.97255 211.764 147.486)" fill="#451E00"/>
<path opacity="0.6" fill-rule="evenodd" clip-rule="evenodd" d="M203.024 144.751C201.443 120.03 180.121 102.891 169.35 98.7173C169.22 95.7229 177.281 98.6114 185.918 103.583C208.123 116.364 213.534 130.183 212.214 144.727C212.178 144.725 212.142 144.724 212.106 144.722C211.855 147.2 211.389 150.454 210.725 151.829C205.778 150.642 202.233 147.736 202.807 145.338C202.855 145.134 202.928 144.938 203.024 144.751Z" fill="#240F00"/>
<path d="M187.573 154.497C186.809 129.365 165.479 111.554 154.677 107.15C157.917 95.689 162.547 97.4087 171.749 101.231C203.9 114.586 206.718 144.32 205.145 158.839C192.817 158.06 187.985 156.98 187.573 154.497Z" fill="#351700"/>
<ellipse rx="9.21136" ry="4.46556" transform="matrix(-0.968211 -0.250136 -0.249584 0.968353 196.236 156.651)" fill="#451E00"/>
<path opacity="0.6" fill-rule="evenodd" clip-rule="evenodd" d="M187.545 153.764C186.394 129.019 165.374 111.51 154.677 107.15C154.599 104.154 162.609 107.182 171.158 112.304C193.137 125.47 198.307 139.382 196.734 153.9C196.698 153.898 196.662 153.896 196.627 153.894C196.332 156.366 195.81 159.612 195.122 160.975C190.196 159.702 186.702 156.735 187.318 154.347C187.37 154.144 187.446 153.95 187.545 153.764Z" fill="#240F00"/>
<path d="M173.709 161.732C177.213 136.834 159.209 115.659 149.309 109.486C154.444 98.7408 158.715 101.222 167.137 106.551C196.561 125.171 194.301 154.953 190.292 168.994C178.274 166.134 173.695 164.249 173.709 161.732Z" fill="#351700"/>
<ellipse rx="9.21251" ry="4.46501" transform="matrix(-0.911705 -0.410846 -0.410039 0.912068 181.882 165.326)" fill="#451E00"/>
<path opacity="0.6" fill-rule="evenodd" clip-rule="evenodd" d="M173.806 161.005C176.863 136.423 159.113 115.599 149.309 109.486C149.74 106.52 157.121 110.864 164.679 117.363C184.109 134.07 186.848 148.658 182.838 162.7C182.803 162.691 182.769 162.683 182.734 162.675C182.024 165.061 180.96 168.171 180.051 169.398C175.413 167.308 172.472 163.79 173.483 161.541C173.569 161.35 173.677 161.171 173.806 161.005Z" fill="#240F00"/>
<path d="M202.836 93.5174C201.7 92.8678 197.902 91.7581 196.145 91.2844L170.8 134.522C172.909 137.121 173.977 145.484 174.247 149.341C180.33 148.732 186.615 144.875 187.629 142.845C188.44 141.221 182.966 129.786 180.127 125.591C188.845 126.403 193.103 121.328 194.117 118.892C194.928 116.943 192.63 113.073 190.873 110.163C201.416 106.428 203.241 97.5096 202.836 93.5174Z" fill="#220F01"/>
<path d="M184.116 105.254C164.729 89.2703 137.293 93.5988 126.867 98.8326C120.39 88.8406 124.733 86.487 133.668 82.075C164.886 66.6601 189.084 84.1296 198.956 94.8803C190.248 103.652 186.253 106.58 184.116 105.254Z" fill="#351700"/>
<ellipse rx="9.21413" ry="4.46421" transform="matrix(-0.825635 0.564204 0.563296 0.826255 191.442 100.149)" fill="#451E00"/>
<path opacity="0.6" fill-rule="evenodd" clip-rule="evenodd" d="M183.547 104.792C164.196 89.3549 137.191 93.6499 126.867 98.8327C124.565 96.9172 132.118 92.8803 141.599 89.8161C165.973 81.9386 179.832 87.2113 189.704 97.9619C189.679 97.9875 189.653 98.013 189.628 98.0384C191.292 99.8896 193.386 102.421 193.957 103.837C189.756 106.709 185.224 107.385 183.835 105.348C183.717 105.175 183.621 104.989 183.547 104.792Z" fill="#240F00"/>
<path d="M177.013 121.406C159.471 103.413 131.728 104.739 120.796 108.81C115.44 98.1744 120.012 96.3059 129.372 92.8894C162.075 80.9526 184.239 100.945 192.889 112.703C183.283 120.479 178.995 122.955 177.013 121.406Z" fill="#351700"/>
<ellipse rx="9.21308" ry="4.46472" transform="matrix(-0.881946 0.47135 0.470483 0.882409 184.849 117.126)" fill="#451E00"/>
<path opacity="0.6" fill-rule="evenodd" clip-rule="evenodd" d="M176.498 120.885C158.932 103.439 131.621 104.778 120.797 108.811C118.715 106.657 126.661 103.463 136.418 101.446C161.501 96.2591 174.708 103.004 183.358 114.763C183.33 114.786 183.302 114.808 183.274 114.831C184.728 116.852 186.536 119.595 186.95 121.065C182.463 123.464 177.884 123.644 176.724 121.468C176.626 121.284 176.55 121.089 176.498 120.885Z" fill="#240F00"/>
<path d="M170.191 141.221C158.188 119.135 131.127 112.87 119.502 113.817C117.232 102.125 122.138 101.569 132.073 100.825C166.785 98.227 182.695 123.493 187.831 137.161C176.477 142.033 171.678 143.251 170.191 141.221Z" fill="#351700"/>
<ellipse rx="9.21117" ry="4.46565" transform="matrix(-0.976847 0.213938 0.213456 0.976953 178.894 139.232)" fill="#451E00"/>
<path opacity="0.6" fill-rule="evenodd" clip-rule="evenodd" d="M169.836 140.58C157.662 119.014 131.014 112.879 119.502 113.817C118.083 111.178 126.596 110.264 136.534 110.975C162.081 112.802 172.962 122.884 178.099 136.552C178.066 136.567 178.033 136.581 178 136.595C178.85 138.935 179.847 142.067 179.847 143.595C174.877 144.683 170.422 143.612 169.896 141.203C169.851 140.998 169.831 140.79 169.836 140.58Z" fill="#240F00"/>
<path d="M95.4933 194.281C94.272 194.984 85.7327 184.236 80.0472 187.506C78.1278 188.609 76.6635 190.492 75.5639 192.527C73.1476 197.002 72.3208 202.439 73.2941 207.454C74.6717 214.546 79.4459 220.352 85.0616 224.2C100.173 234.553 112.161 232.596 128.289 226.603C140.985 221.887 158.282 212.178 154.698 194.661C148.391 163.826 95.5092 194.272 95.4933 194.281Z" fill="#873C41"/>
<path d="M139.243 192.31C135.136 194.865 130.136 195.128 125.651 194.109C124.793 193.914 124.104 194.635 123.89 195.465C121.7 203.992 109.285 208.443 103.058 202.976C102.575 202.551 101.718 202.45 101.212 202.932C97.8516 206.127 92.4677 206.994 88.5135 204.832C82.9303 201.779 82.9576 193.202 84.4785 187.229C89.3994 188.735 94.5654 194.815 95.4935 194.279C95.5059 194.271 127.969 175.587 145.06 182.328C144.697 186.469 142.8 190.096 139.243 192.31Z" fill="white"/>
<path d="M92.68 225.479C101.56 217.312 112.478 212.75 123.548 209.513C133.017 206.744 143.678 204.949 153.262 207.697C148.821 217.251 137.393 223.219 128.289 226.601C114.181 231.843 103.24 233.997 90.6078 227.525C91.296 226.841 91.967 226.135 92.68 225.479Z" fill="#EE7E8B"/>
<path d="M120.625 167.416C120.635 172.237 123.148 176.151 128.366 175.349C132.123 174.341 134.623 171.687 134.614 166.63C134.603 161.332 131.525 157.895 128.333 157.888C124.066 157.88 120.616 162.594 120.625 167.416Z" fill="#2A1200"/>
<path d="M85.0489 167.329C85.0552 170.561 86.5149 174.031 90.2502 173.632C93.385 173.298 94.1853 169.173 94.1814 167.143C94.1745 163.592 92.399 160.237 89.8091 160.232C87.0236 160.227 85.0426 164.097 85.0489 167.329Z" fill="#2A1200"/>
<path d="M118.289 144.568C123.321 142.07 129.606 142.303 134.652 145.15C136.279 146.069 137.329 148.263 136.495 150.124C135.726 151.845 133.696 152.926 131.954 151.941C131.431 151.646 130.899 151.378 130.35 151.146C130.179 151.074 129.74 150.988 129.57 150.856C129.49 150.833 129.412 150.809 129.331 150.788C128.835 150.653 128.333 150.545 127.828 150.462C127.538 150.415 127.25 150.378 126.96 150.347C126.868 150.338 126.777 150.33 126.684 150.323C126.447 150.353 126.151 150.311 125.929 150.318C125.638 150.327 125.35 150.346 125.06 150.373C124.556 150.421 124.054 150.494 123.558 150.594C123.488 150.608 123.42 150.623 123.351 150.639C123.092 150.72 122.831 150.795 122.574 150.886C122.028 151.079 121.497 151.311 120.975 151.569C119.35 152.376 117.056 151.235 116.435 149.396C115.755 147.371 116.547 145.433 118.289 144.568Z" fill="#351700"/>
<path d="M83.2194 146.324C86.228 144.687 89.6794 144.319 92.786 145.218C93.6244 145.461 94.3896 146.193 94.7484 147.002C95.1023 147.8 95.1743 148.942 94.8257 149.809C94.4632 150.709 93.8444 151.566 92.9723 151.993C92.0881 152.426 91.1841 152.538 90.2733 152.275C90.1242 152.232 89.9714 152.207 89.8195 152.171C89.3469 152.117 88.872 152.103 88.3926 152.123C87.8167 152.211 87.2494 152.351 86.6894 152.544C86.4943 152.634 86.2947 152.714 86.1038 152.817C85.2797 153.265 84.2487 153.372 83.4049 153.1C82.5971 152.839 81.7686 152.143 81.4433 151.314C81.1058 150.455 80.993 149.435 81.366 148.507C81.7375 147.582 82.3477 146.797 83.2194 146.324Z" fill="#351700"/>
<path fill-rule="evenodd" clip-rule="evenodd" d="M62.9465 163.192L82.8218 162.476L83.0244 158.213L62.8559 159.133L62.9465 163.192Z" fill="#896307"/>
<path fill-rule="evenodd" clip-rule="evenodd" d="M133.845 137.804C144.867 139.544 152.522 150.86 150.555 163.378C148.587 175.896 137.831 184.306 126.81 182.566C115.788 180.826 108.132 169.51 110.1 156.992C112.067 144.474 122.823 136.064 133.845 137.804ZM154.869 158.987C154.659 146.544 146.403 135.676 134.475 133.793C120.966 131.661 108.403 141.948 106.136 156.366C106.136 156.369 106.136 156.372 106.135 156.375C105.718 156.207 105.263 156.045 104.778 155.904C103.304 155.474 101.447 155.21 99.5145 155.615C99.2677 150.541 97.7952 145.881 95.3992 142.202C92.4208 137.628 87.9358 134.478 82.6034 134.198C77.2791 133.919 72.4142 136.57 68.8428 140.777C65.2702 144.986 62.889 150.849 62.4365 157.36C61.984 163.871 63.5353 169.953 66.5113 174.523C69.4897 179.097 73.9746 182.247 79.3071 182.526C84.6314 182.805 89.4962 180.155 93.0677 175.947C96.5489 171.846 98.8989 166.175 99.4355 159.863C100.825 159.294 102.297 159.408 103.657 159.804C104.504 160.051 105.243 160.393 105.782 160.682C105.688 173.415 114.028 184.659 126.179 186.577C139.689 188.709 152.252 178.422 154.518 164.004C154.564 163.713 154.605 163.422 154.642 163.132L189.66 157.479C196.229 156.568 202.786 156.871 207.629 158.5C212.486 160.134 215.05 166.147 215.127 169.881L219.139 169.784C219.011 163.576 214.513 156.535 208.906 154.648C203.289 152.758 196.058 152.494 189.103 153.461L189.082 153.464L154.869 158.987ZM92.0455 144.441C94.4908 148.196 95.8678 153.377 95.4706 159.092C95.0735 164.807 92.9881 169.819 90.0259 173.309C87.0626 176.8 83.3245 178.672 79.5267 178.473C75.737 178.274 72.3078 176.035 69.8649 172.284C67.4197 168.528 66.0427 163.348 66.4398 157.633C66.837 151.918 68.9224 146.906 71.8846 143.416C74.8479 139.925 78.586 138.053 82.3838 138.252C86.1735 138.451 89.6027 140.69 92.0455 144.441Z" fill="#C5900F"/>
</svg>
