<svg width="300" height="300" viewBox="0 0 300 300" fill="none" xmlns="http://www.w3.org/2000/svg">
<path d="M167.557 91.288C167.557 91.288 220.832 99.64 216.792 175.701C216.777 175.983 222.951 180.091 223.435 180.529C227.74 184.431 231.353 189.428 232.932 195.273C238.557 216.087 218.447 237.533 202.185 243.226C196.111 245.352 189.69 246.384 183.257 246.571C141.437 247.792 86.0692 221.159 83.2255 169.148C83.1236 167.282 83.0985 165.414 83.1464 163.55C83.3985 153.674 85.7774 144.056 89.3626 135.126C89.361 135.126 112.636 77.2824 167.557 91.288Z" fill="#FFE4C0"/>
<g style="mix-blend-mode:multiply" opacity="0.5">
<path d="M218.14 176.504C217.563 177.921 216.987 179.731 216.826 180.766C216.139 185.206 217.655 189.791 220.289 193.087C222.789 196.216 226.361 198.245 229.82 199.01C230.987 199.269 232.401 199.401 233.638 199.443C232.339 186.585 221.891 178.871 218.14 176.504Z" fill="#FFE7E2"/>
</g>
<g style="mix-blend-mode:multiply" opacity="0.5">
<path d="M143.045 210.299C152.941 208.165 159.085 197.718 156.769 186.965C154.453 176.212 144.552 169.224 134.656 171.358C124.76 173.492 118.616 183.938 120.932 194.692C123.248 205.445 133.148 212.432 143.045 210.299Z" fill="#FFE7E2"/>
</g>
<path opacity="0.3" d="M191.49 180.22C191.49 180.22 199.941 172.164 206.484 179.738L191.49 180.22Z" fill="#CBA284"/>
<path d="M112.692 220.363C84.5585 234.491 59.0266 199.068 67.2064 179.155C72.4243 166.453 87.6361 165.465 96.4501 177.067C101.652 183.914 105.861 192.666 108.25 201.039" fill="#FFE4C0"/>
<path opacity="0.3" d="M89.5225 188.753C93.142 192.443 96.0515 197.915 99.6278 200.968C98.967 195.86 97.9122 190.405 95.4359 185.801C92.9216 181.126 88.3488 177.275 83.6925 177.592C77.922 177.986 73.1705 184.72 72.5593 190.825C72.9246 187.172 80.2597 184.699 83.0594 185.045C87.443 193.323 89.1396 209.64 89.1396 209.64C92.7923 200.403 91.314 193.138 89.5225 188.753Z" fill="#CBA284"/>
<path d="M222.038 112.148C221.685 105.151 219.119 94.6138 210.954 97.0529C209.523 97.48 208.265 98.4188 207.3 99.6375C206.926 98.2384 206.381 96.8431 205.699 95.4661C203.809 91.6463 198.652 90.1294 195.279 92.495C194.5 93.0417 193.857 93.7099 193.314 94.4389C185.241 88.2168 176.579 82.8562 167.14 79.7286C153.372 75.1651 138.39 75.5572 124.549 79.8538C123.065 80.314 121.593 80.8202 120.132 81.3669C106.34 86.5324 92.3928 95.2507 83.3043 107.783C74.3868 120.078 69.7697 135.317 68.2398 150.755C67.798 155.206 67.5695 159.685 67.5763 164.162C67.5763 164.594 67.5763 162.05 67.7117 167.205C71.6313 158.273 87.0407 160.1 87.0407 160.1L95.9619 170.25C98.1164 172.994 100.451 189.928 103.201 187.91L104.418 187.301C106.311 185.911 105.279 174.96 105.223 172.477C104.861 156.146 111.568 139.098 122.449 129.154C133.509 119.046 149.562 115.154 164.244 114.239C176.569 113.472 188.57 116.575 199.222 123.394C202.639 125.581 205.891 128.097 208.878 130.934C209.093 131.138 212.031 134.417 212.158 134.351C219.374 130.632 222.17 121.684 222.081 113.512C222.076 113.076 222.062 112.619 222.038 112.148Z" fill="#E9B729"/>
<path d="M167.14 79.7305C176.579 82.8582 185.241 88.2187 193.314 94.4409C193.732 93.8776 194.233 93.3732 194.788 92.9166C193.685 94.1739 192.816 95.8049 192.085 97.3586C188.827 94.601 184.725 93.0841 180.609 94.347C176.67 95.5564 173.89 98.8939 172.218 102.808C162.824 97.1543 152.771 94.9986 141.234 97.1745C127.42 99.7794 115.348 109.385 107.33 121.71C96.5359 138.305 96.4137 169.719 104.543 187.124C104.346 187.31 104.543 187.124 103.207 188.174C100.457 190.191 96.9155 175.73 89.008 171.67C85.4937 169.708 76.5996 167.976 69.1381 175.933C67.5763 168.829 67.5763 165.581 67.5763 161.927C67.5696 157.508 67.7921 155.266 68.2226 150.929L68.2398 150.756C69.7697 135.319 74.3868 120.08 83.3043 107.785C92.3928 95.2527 106.34 86.5344 120.132 81.3689C121.593 80.8222 123.065 80.3159 124.549 79.8557C138.39 75.5591 153.372 75.167 167.14 79.7305Z" fill="#DFAF27"/>
<path d="M203.851 194.281C205.072 194.984 213.612 184.236 219.297 187.506C221.216 188.609 222.681 190.492 223.78 192.527C226.197 197.002 227.023 202.439 226.05 207.454C224.673 214.546 219.898 220.352 214.283 224.2C199.171 234.553 187.183 232.596 171.055 226.603C158.36 221.887 141.062 212.178 144.646 194.661C150.954 163.826 203.835 194.272 203.851 194.281Z" fill="#873C41"/>
<path d="M160.102 192.31C164.208 194.865 169.209 195.128 173.693 194.109C174.551 193.914 175.24 194.635 175.454 195.465C177.644 203.992 190.059 208.443 196.286 202.976C196.769 202.551 197.626 202.45 198.132 202.932C201.493 206.127 206.877 206.994 210.831 204.832C216.414 201.779 216.387 193.202 214.866 187.229C209.945 188.735 204.779 194.815 203.851 194.279C203.838 194.271 171.376 175.587 154.285 182.328C154.647 186.469 156.544 190.096 160.102 192.31Z" fill="white"/>
<path d="M206.664 225.479C197.784 217.312 186.866 212.75 175.796 209.513C166.327 206.744 155.666 204.949 146.082 207.697C150.523 217.251 161.951 223.219 171.055 226.601C185.163 231.843 196.104 233.997 208.736 227.525C208.048 226.841 207.377 226.135 206.664 225.479Z" fill="#EE7E8B"/>
<mask id="mask0" mask-type="alpha" maskUnits="userSpaceOnUse" x="144" y="180" width="83" height="52">
<path d="M203.851 194.281C205.072 194.984 213.612 184.236 219.297 187.506C221.216 188.609 222.681 190.492 223.78 192.527C226.197 197.002 227.023 202.439 226.05 207.454C224.673 214.546 219.898 220.352 214.283 224.2C199.171 234.553 187.183 232.596 171.055 226.603C158.36 221.887 141.062 212.178 144.646 194.661C150.954 163.826 203.835 194.272 203.851 194.281Z" fill="#873C41"/>
</mask>
<g mask="url(#mask0)">
<path fill-rule="evenodd" clip-rule="evenodd" d="M155.042 180.112C155.256 179.853 155.639 179.817 155.898 180.031C156.823 180.798 158.593 181.838 160.582 182.907C162.373 183.869 164.296 184.832 165.849 185.61C166.008 185.689 166.163 185.767 166.313 185.842C172.569 188.978 182.209 192.301 187.241 194.037C187.549 194.143 187.84 194.243 188.112 194.337C193.97 196.362 201.174 198.563 208.958 198.567C210.078 198.5 210.885 198.402 211.748 198.158C212.621 197.911 213.576 197.509 214.982 196.804C215.282 196.654 215.647 196.776 215.797 197.076C215.947 197.377 215.826 197.743 215.526 197.893C214.096 198.61 213.06 199.053 212.077 199.33C211.088 199.61 210.177 199.715 209.011 199.784C209 199.784 208.988 199.785 208.976 199.785C200.97 199.785 193.599 197.522 187.716 195.488C187.441 195.394 187.146 195.292 186.833 195.184C181.814 193.454 172.102 190.105 165.77 186.932C165.619 186.856 165.465 186.779 165.306 186.699C163.754 185.922 161.815 184.952 160.008 183.98C158.031 182.918 156.156 181.826 155.123 180.969C154.865 180.755 154.828 180.371 155.042 180.112Z" fill="#C4C4C4"/>
<rect width="4.86052" height="4.87184" rx="2" transform="matrix(0.998463 0.0554257 -0.0551675 0.998477 206.409 196.334)" fill="#A09E9E"/>
<rect width="4.86123" height="4.87112" rx="2" transform="matrix(0.965774 0.259386 -0.258253 0.966077 185.932 191.868)" fill="#A09E9E"/>
<rect width="4.86274" height="4.86964" rx="2" transform="matrix(0.895674 0.444712 -0.443043 0.8965 164.958 183.342)" fill="#A09E9E"/>
</g>
<path d="M166.232 170.941C169.809 170.877 173.391 172.168 176.559 174.097C178.459 172.151 179.372 168.826 178.658 165.353C177.657 160.478 173.869 157.21 170.198 158.053C166.527 158.897 164.365 163.533 165.368 168.408C165.554 169.323 165.867 170.158 166.232 170.941Z" fill="#2A1200"/>
<path d="M213.12 171.536C213.647 170.368 213.957 168.941 213.927 167.382C213.854 163.51 211.785 160.386 209.305 160.407C206.825 160.427 204.874 163.584 204.946 167.458C204.987 169.588 205.644 171.469 206.627 172.747C208.697 171.943 210.896 171.558 213.12 171.536Z" fill="#2A1200"/>
<path d="M179.657 142.324C174.115 141.421 168.176 143.496 164.19 147.706C162.904 149.063 162.544 151.471 163.888 153.003C165.128 154.421 167.386 154.855 168.761 153.4C169.174 152.964 169.604 152.551 170.061 152.168C170.203 152.048 170.597 151.837 170.722 151.661C170.791 151.615 170.858 151.569 170.929 151.525C171.365 151.25 171.812 150.998 172.271 150.77C172.533 150.64 172.798 150.519 173.067 150.404C173.151 150.369 173.236 150.335 173.323 150.3C173.558 150.259 173.829 150.131 174.044 150.073C174.324 149.996 174.605 149.929 174.889 149.869C175.386 149.766 175.887 149.688 176.39 149.637C176.461 149.63 176.53 149.624 176.601 149.619C176.872 149.62 177.144 149.615 177.416 149.626C177.995 149.65 178.571 149.715 179.145 149.807C180.936 150.1 182.793 148.333 182.846 146.392C182.902 144.255 181.576 142.637 179.657 142.324Z" fill="#DFAF27"/>
<path d="M216.866 148.704C214.853 145.928 211.896 144.107 208.706 143.578C207.845 143.436 206.84 143.766 206.168 144.342C205.506 144.909 204.951 145.909 204.893 146.842C204.834 147.811 205.024 148.851 205.628 149.613C206.24 150.386 207.008 150.876 207.943 151.033C208.096 151.058 208.245 151.101 208.397 151.134C208.847 151.29 209.282 151.482 209.706 151.707C210.188 152.034 210.64 152.406 211.062 152.822C211.2 152.987 211.346 153.145 211.474 153.321C212.025 154.081 212.91 154.622 213.788 154.74C214.629 154.854 215.676 154.583 216.326 153.975C216.999 153.345 217.539 152.473 217.601 151.475C217.663 150.48 217.449 149.508 216.866 148.704Z" fill="#DFAF27"/>
</svg>
