<?xml version="1.0" standalone="no"?>
<!DOCTYPE svg PUBLIC "-//W3C//DTD SVG 20010904//EN"
 "http://www.w3.org/TR/2001/REC-SVG-20010904/DTD/svg10.dtd">
<svg version="1.0" xmlns="http://www.w3.org/2000/svg"
 width="507.000000pt" height="711.000000pt" viewBox="0 0 507.000000 711.000000"
 preserveAspectRatio="xMidYMid meet">

<g transform="translate(0.000000,711.000000) scale(0.100000,-0.100000)"
fill="#000000" stroke="none">
<path d="M2980 6780 c0 -127 4 -200 10 -200 6 0 10 20 10 45 0 33 4 45 15 45
12 0 15 15 15 75 0 60 -3 75 -15 75 -8 0 -15 7 -15 15 0 8 7 15 15 15 8 0 15
7 15 15 0 8 -7 15 -15 15 -11 0 -15 12 -15 50 0 28 -4 50 -10 50 -6 0 -10 -73
-10 -200z"/>
<path d="M2072 6768 c-27 -79 -45 -145 -40 -147 14 -5 14 -4 68 147 35 101 46
142 36 142 -8 0 -32 -54 -64 -142z"/>
<path d="M2250 6907 c0 -2 -22 -65 -50 -141 -27 -76 -50 -140 -50 -142 0 -2 6
-4 13 -4 7 0 33 59 60 134 50 142 53 156 37 156 -5 0 -10 -1 -10 -3z"/>
<path d="M2480 6850 l0 -41 -34 6 c-46 9 -76 -20 -76 -73 0 -60 42 -88 91 -62
13 7 19 7 19 0 0 -5 5 -10 10 -10 6 0 10 43 10 110 0 67 -4 110 -10 110 -5 0
-10 -18 -10 -40z m-18 -67 c22 -20 23 -51 1 -75 -20 -22 -36 -23 -53 -3 -24
29 -8 95 23 95 6 0 19 -7 29 -17z"/>
<path d="M3090 6871 c-5 -11 -10 -26 -10 -35 0 -8 -6 -17 -12 -20 -10 -5 -10
-7 0 -12 8 -4 12 -28 12 -70 0 -50 3 -64 15 -64 12 0 15 14 15 65 0 51 3 65
15 65 8 0 15 5 15 10 0 6 -7 10 -16 10 -10 0 -14 7 -12 23 2 14 9 21 21 21 9
-1 17 4 17 12 0 21 -48 17 -60 -5z"/>
<path d="M4020 6780 c0 -67 4 -110 10 -110 6 0 10 43 10 110 0 67 -4 110 -10
110 -6 0 -10 -43 -10 -110z"/>
<path d="M191 6858 c-30 -81 -61 -171 -61 -179 0 -21 22 -7 31 21 10 27 15 30
54 30 39 0 44 -3 54 -30 10 -30 31 -42 31 -17 0 6 -15 53 -34 102 -34 94 -58
117 -75 73z m58 -100 c1 -5 -15 -8 -35 -8 -38 0 -38 1 -12 70 10 25 10 25 28
-15 10 -22 19 -43 19 -47z"/>
<path d="M340 6775 l0 -105 50 0 c58 0 68 17 13 22 l-38 3 -3 93 c-4 128 -22
117 -22 -13z"/>
<path d="M499 6851 c-24 -25 -29 -38 -29 -79 0 -44 4 -54 31 -76 30 -26 62
-32 107 -20 19 6 22 13 22 55 l0 49 -40 0 c-45 0 -55 -17 -12 -22 34 -4 43
-41 13 -57 -42 -23 -95 19 -95 74 0 57 50 94 100 74 33 -12 45 -2 20 17 -34
24 -84 18 -117 -15z"/>
<path d="M713 6865 c-27 -19 -44 -74 -36 -121 11 -68 94 -98 148 -51 31 26 44
92 26 136 -20 48 -94 67 -138 36z m80 -16 c31 -17 37 -28 37 -72 0 -39 -34
-87 -62 -87 -69 0 -90 134 -26 160 30 12 26 12 51 -1z"/>
<path d="M910 6775 c0 -63 4 -105 10 -105 6 0 10 23 10 51 0 47 2 50 23 47 15
-2 29 -18 45 -50 12 -27 27 -48 32 -48 15 0 12 20 -9 67 -17 36 -17 43 -5 54
19 15 18 54 -2 73 -9 10 -33 16 -60 16 l-44 0 0 -105z m78 76 c8 -4 12 -19 10
-32 -2 -19 -10 -25 -35 -27 -32 -3 -33 -2 -33 32 0 31 3 36 23 36 12 0 28 -4
35 -9z"/>
<path d="M1080 6775 c0 -87 3 -105 15 -105 12 0 15 18 15 105 0 87 -3 105 -15
105 -12 0 -15 -18 -15 -105z"/>
<path d="M1140 6871 c0 -6 15 -11 33 -13 l32 -3 3 -92 c1 -51 7 -93 12 -93 5
0 11 42 12 93 l3 92 28 3 c57 7 24 22 -48 22 -41 0 -75 -4 -75 -9z"/>
<path d="M1330 6775 c0 -63 4 -105 10 -105 6 0 10 23 10 50 l0 50 50 0 50 0 0
-50 c0 -38 4 -50 15 -50 12 0 15 18 15 105 0 87 -3 105 -15 105 -11 0 -15 -12
-15 -46 l0 -45 -47 3 -48 3 -3 43 c-2 23 -7 42 -13 42 -5 0 -9 -46 -9 -105z"/>
<path d="M1537 6873 c-4 -3 -7 -51 -7 -105 0 -79 3 -98 15 -98 11 0 15 19 17
88 l3 87 34 -87 c19 -49 39 -88 46 -88 7 0 27 39 46 88 l34 87 3 -87 c2 -69 6
-88 17 -88 12 0 15 20 15 106 0 103 -1 105 -22 102 -17 -2 -30 -21 -53 -75
-17 -40 -34 -75 -37 -78 -3 -3 -20 30 -38 75 -23 56 -37 80 -49 80 -10 0 -21
-3 -24 -7z"/>
<path d="M1820 6775 l0 -105 55 0 c30 0 55 5 55 10 0 6 -20 10 -45 10 l-45 0
0 40 0 40 40 0 c22 0 40 5 40 10 0 6 -18 10 -40 10 -39 0 -40 1 -40 35 0 35 0
35 45 35 25 0 45 5 45 10 0 6 -25 10 -55 10 l-55 0 0 -105z"/>
<path d="M2300 6865 c0 -8 7 -15 15 -15 8 0 15 7 15 15 0 8 -7 15 -15 15 -8 0
-15 -7 -15 -15z"/>
<path d="M3180 6865 c0 -9 5 -15 11 -13 6 2 11 8 11 13 0 5 -5 11 -11 13 -6 2
-11 -4 -11 -13z"/>
<path d="M2900 6840 c0 -11 -7 -20 -15 -20 -8 0 -15 -4 -15 -9 0 -5 7 -11 15
-15 11 -4 15 -21 15 -60 0 -54 8 -66 46 -66 21 0 17 17 -6 23 -17 4 -20 14
-20 56 0 44 3 51 20 51 11 0 20 5 20 10 0 6 -9 10 -20 10 -13 0 -20 7 -20 20
0 11 -4 20 -10 20 -5 0 -10 -9 -10 -20z"/>
<path d="M3590 6840 c0 -11 -7 -20 -15 -20 -8 0 -15 -4 -15 -10 0 -5 7 -10 15
-10 10 0 15 -15 17 -56 3 -62 21 -84 54 -69 18 8 17 9 -3 12 -42 8 -46 105 -5
111 30 5 28 22 -3 22 -18 0 -25 5 -25 20 0 11 -4 20 -10 20 -5 0 -10 -9 -10
-20z"/>
<path d="M2300 6745 c0 -60 3 -75 15 -75 12 0 15 15 15 75 0 60 -3 75 -15 75
-12 0 -15 -15 -15 -75z"/>
<path d="M2561 6794 c-12 -15 -21 -37 -21 -49 0 -35 37 -75 70 -75 35 0 60 9
60 22 0 5 -13 7 -29 3 -34 -7 -71 9 -71 30 0 11 13 15 50 15 49 0 50 1 50 30
0 53 -73 69 -109 24z m77 -6 c21 -21 13 -28 -28 -28 -22 0 -40 4 -40 8 0 14
23 32 40 32 9 0 21 -5 28 -12z"/>
<path d="M2720 6745 c0 -43 4 -75 10 -75 6 0 10 25 10 55 0 45 4 56 21 65 37
20 49 6 49 -60 0 -47 3 -60 15 -60 12 0 15 13 15 59 0 80 -28 109 -81 81 -13
-7 -19 -7 -19 0 0 5 -4 10 -10 10 -6 0 -10 -32 -10 -75z"/>
<path d="M3180 6745 c0 -43 4 -75 10 -75 6 0 10 32 10 75 0 43 -4 75 -10 75
-6 0 -10 -32 -10 -75z"/>
<path d="M3257 6813 c-15 -15 -5 -22 23 -17 18 4 36 1 45 -6 23 -19 18 -30
-13 -30 -32 0 -72 -25 -72 -45 0 -28 30 -45 75 -43 l45 2 0 63 c0 51 -3 64
-19 73 -22 11 -74 14 -84 3z m83 -86 c0 -18 -21 -37 -41 -37 -22 0 -33 16 -25
35 7 19 66 20 66 2z"/>
<path d="M3410 6745 c0 -60 3 -75 15 -75 11 0 15 13 15 54 0 60 19 88 48 69
12 -7 18 -27 20 -67 2 -31 7 -56 13 -56 6 0 9 27 7 66 -4 79 -18 96 -68 77
-16 -6 -30 -7 -30 -2 0 5 -4 9 -10 9 -6 0 -10 -32 -10 -75z"/>
<path d="M3860 6804 c0 -11 6 -14 20 -9 27 9 60 -3 60 -21 0 -8 -10 -14 -26
-14 -38 0 -64 -18 -64 -44 0 -33 18 -44 73 -44 l47 1 0 51 c0 70 -19 96 -71
96 -29 0 -39 -4 -39 -16z m80 -77 c0 -32 -52 -51 -63 -23 -3 7 0 19 6 25 15
15 57 14 57 -2z"/>
<path d="M4108 6808 c-20 -16 -33 -165 -16 -185 16 -20 82 -16 101 5 35 38 19
62 -46 72 -44 6 -51 26 -7 22 21 -3 33 3 45 21 8 13 13 32 9 41 -3 9 -1 16 5
16 6 0 11 5 11 10 0 14 -83 12 -102 -2z m57 -38 c0 -18 -6 -26 -23 -28 -13 -2
-25 3 -28 12 -10 26 4 48 28 44 17 -2 23 -10 23 -28z m13 -102 c17 -17 -4 -38
-39 -38 -33 0 -45 15 -29 35 15 18 52 19 68 3z"/>
<path d="M4260 6800 c-45 -45 -13 -130 50 -130 41 0 70 31 70 75 0 44 -29 75
-70 75 -17 0 -39 -9 -50 -20z m80 -15 c7 -8 13 -26 13 -40 0 -57 -55 -72 -82
-24 -13 24 -13 29 2 53 19 29 48 34 67 11z"/>
<path d="M3670 6620 c0 -6 33 -10 80 -10 47 0 80 4 80 10 0 6 -33 10 -80 10
-47 0 -80 -4 -80 -10z"/>
<path d="M1280 6175 c0 -42 -2 -45 -19 -35 -47 24 -91 -7 -91 -65 0 -58 44
-89 91 -65 13 7 19 7 19 0 0 -5 5 -10 10 -10 6 0 10 43 10 110 0 67 -4 110
-10 110 -5 0 -10 -20 -10 -45z m-17 -59 c23 -18 22 -59 -4 -82 -27 -24 -53 -9
-57 35 -5 52 24 75 61 47z"/>
<path d="M1416 6198 c-9 -12 -13 -24 -11 -27 6 -5 45 29 45 41 0 15 -19 8 -34
-14z"/>
<path d="M1660 6110 c0 -67 4 -110 10 -110 6 0 10 43 10 110 0 67 -4 110 -10
110 -6 0 -10 -43 -10 -110z"/>
<path d="M870 6195 c0 -9 5 -15 11 -13 6 2 11 8 11 13 0 5 -5 11 -11 13 -6 2
-11 -4 -11 -13z"/>
<path d="M2270 6195 c0 -8 7 -15 15 -15 8 0 15 7 15 15 0 8 -7 15 -15 15 -8 0
-15 -7 -15 -15z"/>
<path d="M760 6171 c0 -11 -6 -22 -12 -25 -10 -5 -10 -7 0 -12 7 -3 12 -26 12
-58 0 -29 5 -57 12 -64 17 -17 58 -15 58 2 0 8 -8 13 -17 12 -15 -1 -19 9 -21
52 -3 47 -1 52 17 52 12 0 21 5 21 10 0 6 -9 10 -20 10 -13 0 -20 7 -20 20 0
11 -7 20 -15 20 -8 0 -15 -9 -15 -19z"/>
<path d="M2170 6171 c0 -11 -6 -22 -12 -25 -10 -5 -10 -7 0 -12 7 -3 12 -26
12 -58 0 -29 5 -57 12 -64 17 -17 58 -15 58 2 0 8 -8 13 -17 12 -15 -1 -19 9
-21 52 -3 47 -1 52 17 52 12 0 21 5 21 10 0 6 -9 10 -20 10 -13 0 -20 7 -20
20 0 11 -7 20 -15 20 -8 0 -15 -9 -15 -19z"/>
<path d="M193 6137 c-35 -17 -63 -36 -63 -42 0 -9 119 -75 135 -75 3 0 5 6 5
14 0 7 -26 24 -57 37 l-58 23 58 25 c31 13 57 30 57 38 0 18 -6 16 -77 -20z"/>
<path d="M2820 6156 c0 -8 24 -24 53 -36 l52 -23 -52 -25 c-29 -15 -53 -32
-53 -39 0 -8 22 -2 63 17 35 17 62 36 62 45 0 9 -27 28 -62 45 -45 20 -63 25
-63 16z"/>
<path d="M310 6045 c0 -87 3 -105 15 -105 10 0 15 10 15 34 0 34 1 35 34 29
27 -4 36 -1 50 18 22 32 21 92 -2 112 -21 19 -45 21 -73 7 -13 -7 -19 -7 -19
0 0 5 -4 10 -10 10 -6 0 -10 -42 -10 -105z m87 77 c40 -25 7 -121 -34 -96 -25
15 -30 74 -7 91 20 15 25 15 41 5z"/>
<path d="M487 6143 c-15 -15 -5 -22 23 -17 18 4 36 1 45 -6 23 -19 18 -30 -13
-30 -32 0 -72 -25 -72 -45 0 -28 30 -45 75 -43 l45 2 0 63 c0 51 -3 64 -19 73
-22 11 -74 14 -84 3z m83 -86 c0 -18 -21 -37 -41 -37 -22 0 -33 16 -25 35 7
19 66 20 66 2z"/>
<path d="M640 6075 c0 -60 3 -75 15 -75 12 0 15 13 15 55 0 43 4 56 19 64 10
6 21 7 25 4 3 -3 6 1 6 10 0 19 -13 21 -41 7 -13 -7 -19 -7 -19 0 0 5 -4 10
-10 10 -6 0 -10 -32 -10 -75z"/>
<path d="M870 6075 c0 -43 4 -75 10 -75 6 0 10 32 10 75 0 43 -4 75 -10 75 -6
0 -10 -32 -10 -75z"/>
<path d="M951 6124 c-12 -15 -21 -37 -21 -49 0 -35 37 -75 70 -75 35 0 60 9
60 22 0 5 -13 7 -29 3 -34 -7 -71 9 -71 30 0 11 13 15 50 15 49 0 50 1 50 30
0 53 -73 69 -109 24z m77 -6 c21 -21 13 -28 -28 -28 -22 0 -40 4 -40 8 0 14
23 32 40 32 9 0 21 -5 28 -12z"/>
<path d="M1372 6134 c-17 -12 -22 -25 -22 -59 0 -34 5 -47 22 -59 23 -17 55
-20 82 -10 29 11 16 25 -17 19 -25 -5 -39 -2 -50 10 -28 27 -20 35 38 35 48 0
55 2 55 20 0 27 -35 60 -63 60 -12 0 -33 -7 -45 -16z m76 -26 c3 -15 -4 -18
-38 -18 -38 0 -40 1 -30 21 14 25 63 23 68 -3z"/>
<path d="M1530 6130 c-26 -26 -27 -90 -2 -113 29 -26 92 -20 92 9 0 11 -5 11
-26 2 -23 -11 -29 -10 -45 11 -11 13 -19 29 -19 36 0 7 8 23 19 36 16 21 22
22 45 11 21 -9 26 -9 26 2 0 31 -61 35 -90 6z"/>
<path d="M1737 6143 c-16 -15 -5 -24 23 -18 19 4 36 2 45 -5 22 -19 18 -30
-11 -30 -42 0 -64 -18 -64 -50 0 -32 15 -40 78 -38 l32 1 0 62 c0 34 -5 66
-12 73 -13 13 -80 17 -91 5z m83 -86 c0 -19 -21 -37 -42 -37 -24 0 -35 29 -17
41 21 13 59 11 59 -4z"/>
<path d="M1890 6075 c0 -60 3 -75 15 -75 12 0 15 13 15 55 0 55 17 79 48 68
18 -7 15 16 -3 23 -8 4 -23 0 -32 -7 -13 -11 -17 -11 -20 -1 -12 34 -23 4 -23
-63z"/>
<path d="M2010 6134 c0 -11 6 -14 20 -9 27 9 60 -3 60 -21 0 -8 -10 -14 -26
-14 -38 0 -64 -18 -64 -44 0 -33 18 -44 73 -44 l47 1 0 51 c0 70 -19 96 -71
96 -29 0 -39 -4 -39 -16z m80 -77 c0 -32 -52 -51 -63 -23 -3 7 0 19 6 25 15
15 57 14 57 -2z"/>
<path d="M2280 6075 c0 -43 4 -75 10 -75 6 0 10 32 10 75 0 43 -4 75 -10 75
-6 0 -10 -32 -10 -75z"/>
<path d="M2362 6127 c-45 -48 -16 -127 48 -127 43 0 70 31 70 79 0 30 -6 44
-22 55 -32 23 -71 20 -96 -7z m82 -19 c21 -29 20 -41 -3 -69 -16 -21 -22 -22
-45 -11 -21 9 -26 19 -26 46 0 54 46 74 74 34z"/>
<path d="M2530 6075 c0 -43 4 -75 10 -75 6 0 10 25 10 55 0 45 4 56 21 65 37
20 49 6 49 -60 0 -47 3 -60 15 -60 12 0 15 13 15 59 0 80 -28 109 -81 81 -13
-7 -19 -7 -19 0 0 5 -4 10 -10 10 -6 0 -10 -32 -10 -75z"/>
<path d="M2706 6137 c-26 -19 -16 -50 22 -66 33 -15 42 -38 18 -47 -8 -3 -24
-1 -35 6 -17 9 -21 8 -21 -4 0 -9 11 -18 24 -22 59 -14 98 34 56 68 -12 10
-28 18 -36 18 -8 0 -14 10 -14 21 0 18 5 21 30 17 19 -3 29 -1 27 6 -5 17 -50
19 -71 3z"/>
<path d="M150 5426 l0 -106 39 0 c61 0 90 15 107 57 18 42 12 91 -15 124 -13
17 -31 23 -74 27 l-57 4 0 -106z m105 59 c51 -50 22 -135 -45 -138 l-35 -2 -3
69 c-2 38 -1 75 2 83 9 21 55 15 81 -12z"/>
<path d="M350 5425 l0 -105 55 0 c30 0 55 5 55 10 0 6 -18 10 -40 10 l-40 0 0
40 c0 39 1 40 35 40 19 0 35 5 35 10 0 6 -16 10 -35 10 -33 0 -35 2 -35 35 0
34 1 35 40 35 22 0 40 5 40 10 0 6 -25 10 -55 10 l-55 0 0 -105z"/>
<path d="M510 5425 l0 -105 50 0 c37 0 55 5 70 20 25 25 26 66 1 82 -17 11
-18 14 -4 35 14 21 14 25 -1 48 -14 21 -24 25 -66 25 l-50 0 0 -105z m91 69
c18 -21 0 -48 -35 -52 -24 -3 -26 0 -26 32 0 31 3 36 24 36 13 0 29 -7 37 -16z
m13 -96 c16 -26 -4 -52 -43 -56 -30 -3 -31 -2 -31 38 0 40 1 41 31 38 18 -2
37 -11 43 -20z"/>
<path d="M690 5446 c0 -79 2 -86 26 -105 33 -26 75 -27 105 -2 21 17 24 29 28
105 3 74 1 86 -13 86 -13 0 -16 -13 -16 -80 0 -74 -2 -81 -25 -96 -23 -15 -27
-15 -50 0 -23 15 -25 22 -25 96 0 64 -3 80 -15 80 -12 0 -15 -16 -15 -84z"/>
<path d="M880 5520 c0 -5 14 -10 30 -10 l30 0 0 -95 c0 -78 3 -95 15 -95 12 0
15 17 15 95 l0 95 30 0 c17 0 30 5 30 10 0 6 -32 10 -75 10 -43 0 -75 -4 -75
-10z"/>
<path d="M870 4845 c0 -9 5 -15 11 -13 6 2 11 8 11 13 0 5 -5 11 -11 13 -6 2
-11 -4 -11 -13z"/>
<path d="M1180 4845 c0 -8 7 -15 15 -15 8 0 15 7 15 15 0 8 -7 15 -15 15 -8 0
-15 -7 -15 -15z"/>
<path d="M2210 4845 c0 -9 5 -15 11 -13 6 2 11 8 11 13 0 5 -5 11 -11 13 -6 2
-11 -4 -11 -13z"/>
<path d="M760 4821 c0 -11 -6 -22 -12 -25 -10 -5 -10 -7 0 -12 7 -3 12 -26 12
-58 0 -29 5 -57 12 -64 17 -17 58 -15 58 2 0 8 -8 13 -17 12 -15 -1 -19 9 -21
52 -3 47 -1 52 17 52 12 0 21 5 21 10 0 6 -9 10 -20 10 -13 0 -20 7 -20 20 0
11 -7 20 -15 20 -8 0 -15 -9 -15 -19z"/>
<path d="M1570 4820 c0 -11 -7 -20 -15 -20 -8 0 -15 -4 -15 -9 0 -5 7 -11 15
-15 11 -4 15 -21 15 -60 0 -54 8 -66 46 -66 21 0 17 17 -6 23 -17 4 -20 14
-20 56 0 44 3 51 20 51 11 0 20 5 20 10 0 6 -9 10 -20 10 -13 0 -20 7 -20 20
0 11 -4 20 -10 20 -5 0 -10 -9 -10 -20z"/>
<path d="M2100 4821 c0 -11 -6 -22 -12 -25 -10 -5 -10 -7 0 -12 7 -3 12 -24
12 -50 0 -25 5 -54 10 -65 12 -22 60 -26 60 -5 0 8 -8 13 -17 12 -15 -1 -19 9
-21 52 -3 47 -1 52 17 52 12 0 21 5 21 10 0 6 -9 10 -20 10 -13 0 -20 7 -20
20 0 11 -7 20 -15 20 -8 0 -15 -9 -15 -19z"/>
<path d="M193 4787 c-35 -17 -63 -36 -63 -42 0 -9 119 -75 135 -75 3 0 5 6 5
14 0 7 -26 24 -57 37 l-58 23 58 25 c31 13 57 30 57 38 0 18 -6 16 -77 -20z"/>
<path d="M2750 4806 c0 -7 25 -24 57 -37 l56 -23 -56 -24 c-32 -14 -57 -31
-57 -38 0 -8 2 -14 5 -14 16 0 135 66 135 75 0 9 -119 75 -135 75 -3 0 -5 -6
-5 -14z"/>
<path d="M310 4695 c0 -87 3 -105 15 -105 10 0 15 10 15 34 0 34 1 35 34 29
27 -4 36 -1 50 18 22 32 21 92 -2 112 -21 19 -45 21 -73 7 -13 -7 -19 -7 -19
0 0 5 -4 10 -10 10 -6 0 -10 -42 -10 -105z m87 77 c40 -25 7 -121 -34 -96 -25
15 -30 74 -7 91 20 15 25 15 41 5z"/>
<path d="M487 4793 c-15 -15 -5 -22 23 -17 18 4 36 1 45 -6 23 -19 18 -30 -13
-30 -32 0 -72 -25 -72 -45 0 -28 30 -45 75 -43 l45 2 0 63 c0 51 -3 64 -19 73
-22 11 -74 14 -84 3z m83 -86 c0 -18 -21 -37 -41 -37 -22 0 -33 16 -25 35 7
19 66 20 66 2z"/>
<path d="M640 4725 c0 -60 3 -75 15 -75 12 0 15 13 15 55 0 43 4 56 19 64 10
6 21 7 25 4 3 -3 6 1 6 10 0 19 -13 21 -41 7 -13 -7 -19 -7 -19 0 0 5 -4 10
-10 10 -6 0 -10 -32 -10 -75z"/>
<path d="M870 4725 c0 -43 4 -75 10 -75 6 0 10 32 10 75 0 43 -4 75 -10 75 -6
0 -10 -32 -10 -75z"/>
<path d="M951 4774 c-12 -15 -21 -37 -21 -49 0 -35 37 -75 70 -75 35 0 60 9
60 22 0 5 -13 7 -29 3 -34 -7 -71 9 -71 30 0 11 13 15 50 15 49 0 50 1 50 30
0 53 -73 69 -109 24z m77 -6 c21 -21 13 -28 -28 -28 -22 0 -40 4 -40 8 0 14
23 32 40 32 9 0 21 -5 28 -12z"/>
<path d="M1180 4725 c0 -60 3 -75 15 -75 12 0 15 15 15 75 0 60 -3 75 -15 75
-12 0 -15 -15 -15 -75z"/>
<path d="M1260 4725 c0 -43 4 -75 10 -75 6 0 10 22 10 48 0 35 5 54 18 65 38
35 62 8 62 -67 0 -25 5 -46 10 -46 6 0 10 26 10 59 0 80 -28 109 -81 81 -13
-7 -19 -7 -19 0 0 5 -4 10 -10 10 -6 0 -10 -32 -10 -75z"/>
<path d="M1436 4785 c-25 -25 -19 -44 19 -62 36 -17 46 -40 21 -49 -8 -3 -24
-1 -35 6 -17 9 -21 8 -21 -4 0 -21 46 -31 76 -17 35 16 31 48 -11 72 -45 27
-47 53 -5 47 19 -3 29 -1 27 6 -6 18 -53 18 -71 1z"/>
<path d="M1670 4725 c0 -60 3 -75 15 -75 12 0 15 13 15 55 0 43 4 56 19 64 10
6 21 7 25 4 3 -3 6 1 6 10 0 19 -13 21 -41 7 -13 -7 -19 -7 -19 0 0 5 -4 10
-10 10 -6 0 -10 -32 -10 -75z"/>
<path d="M1790 4737 c0 -36 5 -68 12 -75 16 -16 50 -15 67 1 11 10 14 10 18 0
12 -34 23 -5 23 62 0 60 -3 75 -15 75 -12 0 -15 -13 -15 -55 0 -45 -4 -56 -21
-65 -33 -18 -49 4 -49 66 0 30 -4 54 -10 54 -6 0 -10 -28 -10 -63z"/>
<path d="M1970 4780 c-26 -26 -27 -90 -2 -113 29 -26 92 -20 92 9 0 11 -5 11
-26 2 -23 -11 -29 -10 -45 11 -11 13 -19 29 -19 36 0 7 8 23 19 36 16 21 22
22 45 11 21 -9 26 -9 26 2 0 31 -61 35 -90 6z"/>
<path d="M2210 4725 c0 -43 4 -75 10 -75 6 0 10 32 10 75 0 43 -4 75 -10 75
-6 0 -10 -32 -10 -75z"/>
<path d="M2302 4784 c-29 -20 -31 -93 -4 -117 29 -26 77 -22 101 9 58 73 -21
161 -97 108z m69 -14 c13 -7 19 -21 19 -45 0 -49 -42 -71 -74 -39 -21 20 -20
53 1 76 19 21 27 22 54 8z"/>
<path d="M2460 4725 c0 -43 4 -75 10 -75 6 0 10 22 10 48 0 35 5 54 18 65 38
35 62 8 62 -67 0 -25 5 -46 10 -46 6 0 10 26 10 59 0 80 -28 109 -81 81 -13
-7 -19 -7 -19 0 0 5 -4 10 -10 10 -6 0 -10 -32 -10 -75z"/>
<path d="M2643 4794 c-7 -3 -13 -18 -13 -33 0 -21 8 -31 35 -44 19 -9 35 -21
35 -26 0 -16 -38 -23 -60 -11 -16 9 -20 8 -20 -4 0 -21 46 -31 76 -17 38 17
32 54 -12 74 -40 20 -41 42 0 42 14 -1 25 4 23 10 -4 11 -45 17 -64 9z"/>
<path d="M2348 3743 c-30 -73 -15 -249 22 -261 9 -3 11 1 6 14 -29 74 -29 183
-1 257 12 29 -15 19 -27 -10z"/>
<path d="M3264 3748 c26 -92 29 -129 12 -195 -16 -65 -14 -92 5 -63 32 50 37
192 9 253 -16 33 -35 36 -26 5z"/>
<path d="M1226 3652 c-41 -112 -41 -112 -22 -112 8 0 17 14 21 31 7 29 9 30
53 27 40 -3 47 -6 52 -28 3 -14 13 -26 23 -28 14 -3 11 14 -21 102 -48 137
-58 138 -106 8z m63 36 c25 -68 25 -68 -14 -68 -31 0 -36 3 -30 18 4 9 12 29
17 45 12 33 16 34 27 5z"/>
<path d="M1400 3645 c0 -87 3 -105 15 -105 11 0 15 12 15 45 0 45 0 45 35 45
19 0 35 5 35 10 0 6 -16 10 -35 10 -34 0 -35 1 -35 40 l0 40 40 0 c22 0 40 5
40 10 0 6 -25 10 -55 10 l-55 0 0 -105z"/>
<path d="M1550 3645 c0 -87 3 -105 15 -105 11 0 15 12 15 45 l0 45 40 0 c22 0
40 5 40 10 0 6 -18 10 -40 10 l-40 0 0 40 0 40 40 0 c22 0 40 5 40 10 0 6 -25
10 -55 10 l-55 0 0 -105z"/>
<path d="M1700 3645 c0 -87 3 -105 15 -105 12 0 15 18 15 105 0 87 -3 105 -15
105 -12 0 -15 -18 -15 -105z"/>
<path d="M1824 3738 c-50 -24 -61 -131 -19 -173 28 -29 80 -33 111 -11 25 19
13 29 -20 17 -60 -23 -105 32 -85 104 12 42 45 60 84 45 19 -7 25 -6 25 4 0
26 -56 34 -96 14z"/>
<path d="M1960 3645 c0 -87 3 -105 15 -105 11 0 15 12 15 50 l0 50 50 0 50 0
0 -50 c0 -27 5 -50 10 -50 6 0 10 42 10 105 0 59 -4 105 -9 105 -6 0 -11 -19
-13 -42 l-3 -43 -47 -3 -48 -3 0 45 c0 34 -4 46 -15 46 -12 0 -15 -18 -15
-105z"/>
<path d="M2170 3645 l0 -105 55 0 c65 0 74 17 13 22 -42 3 -43 4 -46 41 l-3
37 40 0 c51 0 54 18 4 22 -35 3 -38 6 -38 33 0 28 3 30 43 33 61 5 52 22 -13
22 l-55 0 0 -105z"/>
<path d="M2458 3732 c-41 -24 -38 -43 3 -22 18 10 19 7 19 -70 0 -79 0 -80
-25 -80 -14 0 -25 -4 -25 -10 0 -6 27 -10 60 -10 33 0 60 4 60 10 0 6 -9 10
-20 10 -19 0 -20 7 -20 95 0 103 -3 108 -52 77z"/>
<path d="M2611 3731 c-37 -37 -40 -134 -4 -173 21 -24 68 -23 93 2 16 16 20
33 20 85 0 52 -4 69 -20 85 -25 25 -64 26 -89 1z m76 -31 c17 -34 16 -91 -3
-118 -32 -46 -74 -15 -74 56 0 81 48 119 77 62z"/>
<path d="M2934 3736 c-26 -20 -13 -30 20 -15 22 11 29 10 43 -3 22 -22 10 -47
-27 -54 -36 -8 -40 -24 -6 -24 24 0 56 -23 56 -40 0 -14 -30 -40 -46 -40 -9 0
-24 5 -35 10 -15 8 -19 7 -19 -4 0 -36 81 -36 109 0 26 33 26 50 2 70 -17 15
-18 18 -3 44 15 27 15 30 -2 49 -22 24 -64 27 -92 7z"/>
<path d="M3105 3730 c-19 -21 -31 -95 -21 -134 15 -60 79 -76 115 -30 29 37
30 135 1 164 -25 25 -72 26 -95 0z m76 -16 c7 -9 13 -40 13 -69 0 -75 -31
-106 -68 -69 -11 10 -16 34 -16 69 0 73 37 110 71 69z"/>
<path d="M2810 3670 c0 -27 -3 -30 -30 -30 -16 0 -30 -4 -30 -10 0 -5 14 -10
30 -10 27 0 30 -3 30 -30 0 -16 5 -30 10 -30 6 0 10 14 10 30 0 27 3 30 30 30
17 0 30 5 30 10 0 6 -13 10 -30 10 -27 0 -30 3 -30 30 0 17 -4 30 -10 30 -5 0
-10 -13 -10 -30z"/>
<path d="M2415 3288 c-8 -28 -15 -70 -15 -93 0 -57 27 -145 45 -145 12 0 12 6
0 41 -8 23 -15 70 -15 104 0 34 7 81 15 104 12 35 12 41 0 41 -8 0 -20 -21
-30 -52z"/>
<path d="M3274 3324 c30 -74 29 -182 0 -258 -5 -13 -3 -17 6 -14 22 7 38 68
38 143 0 75 -16 136 -38 143 -9 3 -11 -1 -6 -14z"/>
<path d="M1226 3222 c-41 -112 -41 -112 -22 -112 8 0 17 14 21 31 7 29 9 30
53 27 40 -3 47 -6 52 -28 3 -14 13 -26 23 -28 14 -3 11 14 -21 102 -48 137
-58 138 -106 8z m63 36 c25 -68 25 -68 -14 -68 -31 0 -36 3 -30 18 4 9 12 29
17 45 12 33 16 34 27 5z"/>
<path d="M1400 3215 c0 -87 3 -105 15 -105 11 0 15 12 15 45 0 45 0 45 35 45
19 0 35 5 35 10 0 6 -16 10 -35 10 -34 0 -35 1 -35 40 l0 40 40 0 c22 0 40 5
40 10 0 6 -25 10 -55 10 l-55 0 0 -105z"/>
<path d="M1550 3215 c0 -87 3 -105 15 -105 11 0 15 12 15 45 l0 45 40 0 c22 0
40 5 40 10 0 6 -18 10 -40 10 l-40 0 0 40 0 40 40 0 c22 0 40 5 40 10 0 6 -25
10 -55 10 l-55 0 0 -105z"/>
<path d="M1700 3215 c0 -87 3 -105 15 -105 12 0 15 18 15 105 0 87 -3 105 -15
105 -12 0 -15 -18 -15 -105z"/>
<path d="M1824 3308 c-50 -24 -61 -131 -19 -173 28 -29 80 -33 111 -11 25 19
13 29 -20 17 -60 -23 -105 32 -85 104 12 42 45 60 84 45 19 -7 25 -6 25 4 0
26 -56 34 -96 14z"/>
<path d="M1960 3215 c0 -87 3 -105 15 -105 11 0 15 12 15 50 l0 50 50 0 50 0
0 -50 c0 -27 5 -50 10 -50 6 0 10 42 10 105 0 59 -4 105 -9 105 -6 0 -11 -19
-13 -42 l-3 -43 -47 -3 -48 -3 0 45 c0 34 -4 46 -15 46 -12 0 -15 -18 -15
-105z"/>
<path d="M2170 3215 l0 -105 55 0 c65 0 74 17 13 22 -42 3 -43 4 -46 41 l-3
37 40 0 c51 0 54 18 4 22 -35 3 -38 6 -38 33 0 28 3 30 43 33 61 5 52 22 -13
22 l-55 0 0 -105z"/>
<path d="M2530 3258 c-53 -84 -53 -98 5 -98 41 0 45 -2 45 -25 0 -14 5 -25 10
-25 6 0 10 11 10 25 0 16 6 25 15 25 8 0 15 4 15 9 0 5 -7 11 -15 15 -11 4
-15 22 -15 71 0 85 -17 86 -70 3z m47 -75 c-3 -2 -19 -3 -35 -1 l-31 3 32 53
32 53 3 -52 c2 -28 1 -53 -1 -56z"/>
<path d="M2681 3294 c-29 -37 -30 -135 -1 -164 25 -25 61 -26 90 -2 24 19 38
91 26 136 -15 60 -79 76 -115 30z m73 -10 c11 -10 16 -34 16 -69 0 -35 -5 -59
-16 -69 -37 -37 -68 -6 -68 69 0 75 31 106 68 69z"/>
<path d="M2953 3313 c-7 -2 -13 -11 -13 -19 0 -10 6 -11 23 -5 14 5 30 5 40 0
29 -17 19 -54 -28 -107 -25 -27 -45 -55 -45 -61 0 -7 24 -11 65 -11 37 0 65 4
65 10 0 6 -20 10 -45 10 -25 0 -45 3 -45 6 0 4 18 26 40 50 44 47 52 90 24
118 -15 15 -55 20 -81 9z"/>
<path d="M3121 3301 c-37 -37 -40 -134 -4 -173 21 -24 68 -23 93 2 16 16 20
33 20 85 0 52 -4 69 -20 85 -25 25 -64 26 -89 1z m76 -31 c17 -34 16 -91 -3
-118 -32 -46 -74 -15 -74 56 0 81 48 119 77 62z"/>
<path d="M2820 3190 c0 -5 18 -10 40 -10 22 0 40 5 40 10 0 6 -18 10 -40 10
-22 0 -40 -4 -40 -10z"/>
<path d="M2415 2848 c-8 -28 -15 -70 -15 -93 0 -57 27 -145 45 -145 12 0 12 6
0 41 -8 23 -15 70 -15 104 0 34 7 81 15 104 12 35 12 41 0 41 -8 0 -20 -21
-30 -52z"/>
<path d="M2880 2880 c0 -18 -3 -19 -20 -10 -16 9 -20 8 -20 -5 0 -8 7 -15 15
-15 8 0 15 -4 15 -10 0 -5 -7 -10 -15 -10 -8 0 -15 -7 -15 -15 0 -13 4 -14 20
-5 17 9 20 8 20 -10 0 -11 5 -20 10 -20 6 0 10 9 10 20 0 21 15 27 25 10 4 -6
11 -7 17 -4 7 5 4 12 -7 21 -18 13 -18 13 0 26 11 9 14 16 7 21 -6 3 -13 2
-17 -4 -10 -17 -25 -11 -25 10 0 11 -4 20 -10 20 -5 0 -10 -9 -10 -20z"/>
<path d="M3175 2859 c8 -23 15 -70 15 -104 0 -34 -7 -81 -15 -104 -12 -35 -12
-41 0 -41 18 0 45 88 45 145 0 57 -27 145 -45 145 -12 0 -12 -6 0 -41z"/>
<path d="M1226 2782 c-41 -112 -41 -112 -22 -112 8 0 17 14 21 31 7 29 9 30
53 27 40 -3 47 -6 52 -28 3 -14 13 -26 23 -28 14 -3 11 14 -21 102 -48 137
-58 138 -106 8z m63 36 c25 -68 25 -68 -14 -68 -31 0 -36 3 -30 18 4 9 12 29
17 45 12 33 16 34 27 5z"/>
<path d="M1400 2775 c0 -87 3 -105 15 -105 11 0 15 12 15 45 0 45 0 45 35 45
19 0 35 5 35 10 0 6 -16 10 -35 10 -34 0 -35 1 -35 40 l0 40 40 0 c22 0 40 5
40 10 0 6 -25 10 -55 10 l-55 0 0 -105z"/>
<path d="M1550 2775 c0 -87 3 -105 15 -105 11 0 15 12 15 45 l0 45 40 0 c22 0
40 5 40 10 0 6 -18 10 -40 10 l-40 0 0 40 0 40 40 0 c22 0 40 5 40 10 0 6 -25
10 -55 10 l-55 0 0 -105z"/>
<path d="M1700 2775 c0 -87 3 -105 15 -105 12 0 15 18 15 105 0 87 -3 105 -15
105 -12 0 -15 -18 -15 -105z"/>
<path d="M1824 2868 c-50 -24 -61 -131 -19 -173 28 -29 80 -33 111 -11 25 19
13 29 -20 17 -60 -23 -105 32 -85 104 12 42 45 60 84 45 19 -7 25 -6 25 4 0
26 -56 34 -96 14z"/>
<path d="M1960 2775 c0 -87 3 -105 15 -105 11 0 15 12 15 50 l0 50 50 0 50 0
0 -50 c0 -27 5 -50 10 -50 6 0 10 42 10 105 0 59 -4 105 -9 105 -6 0 -11 -19
-13 -42 l-3 -43 -47 -3 -48 -3 0 45 c0 34 -4 46 -15 46 -12 0 -15 -18 -15
-105z"/>
<path d="M2170 2775 l0 -105 55 0 c65 0 74 17 13 22 -42 3 -43 4 -46 41 l-3
37 40 0 c51 0 54 18 4 22 -35 3 -38 6 -38 33 0 28 3 30 43 33 61 5 52 22 -13
22 l-55 0 0 -105z"/>
<path d="M2518 2869 c-28 -16 -22 -30 8 -19 32 13 30 13 49 -6 21 -21 12 -47
-36 -105 -22 -25 -39 -51 -39 -57 0 -15 116 -17 125 -2 4 6 -12 10 -39 10 -52
0 -56 7 -22 39 25 23 56 79 56 100 0 19 -39 51 -62 51 -13 0 -31 -5 -40 -11z"/>
<path d="M2681 2854 c-29 -37 -30 -135 -1 -164 25 -25 61 -26 90 -2 24 19 38
91 26 136 -15 60 -79 76 -115 30z m73 -10 c11 -10 16 -34 16 -69 0 -35 -5 -59
-16 -69 -37 -37 -68 -6 -68 69 0 75 31 106 68 69z"/>
<path d="M3000 2830 c0 -49 1 -50 29 -50 47 0 61 -10 61 -41 0 -37 -30 -54
-71 -40 -23 8 -29 7 -29 -3 0 -31 81 -35 110 -6 21 21 26 65 11 89 -5 8 -26
17 -47 20 -33 5 -39 10 -39 31 0 22 5 25 43 28 61 5 52 22 -13 22 l-55 0 0
-50z"/>
<path d="M3071 2458 c-5 -13 -27 -76 -50 -141 -39 -109 -45 -146 -22 -121 9 9
101 262 101 277 0 16 -21 5 -29 -15z"/>
<path d="M2415 2418 c-8 -28 -15 -70 -15 -93 0 -57 27 -145 45 -145 12 0 12 6
0 41 -8 23 -15 70 -15 104 0 34 7 81 15 104 12 35 12 41 0 41 -8 0 -20 -21
-30 -52z"/>
<path d="M3305 2429 c8 -23 15 -70 15 -104 0 -34 -7 -81 -15 -104 -12 -35 -12
-41 0 -41 18 0 45 88 45 145 0 57 -27 145 -45 145 -12 0 -12 -6 0 -41z"/>
<path d="M1226 2352 c-41 -112 -41 -112 -22 -112 8 0 17 14 21 31 7 29 9 30
53 27 40 -3 47 -6 52 -28 3 -14 13 -26 23 -28 14 -3 11 14 -21 102 -48 137
-58 138 -106 8z m63 36 c25 -68 25 -68 -14 -68 -31 0 -36 3 -30 18 4 9 12 29
17 45 12 33 16 34 27 5z"/>
<path d="M1400 2345 c0 -87 3 -105 15 -105 11 0 15 12 15 45 0 45 0 45 35 45
19 0 35 5 35 10 0 6 -16 10 -35 10 -34 0 -35 1 -35 40 l0 40 40 0 c22 0 40 5
40 10 0 6 -25 10 -55 10 l-55 0 0 -105z"/>
<path d="M1550 2345 c0 -87 3 -105 15 -105 11 0 15 12 15 45 l0 45 40 0 c22 0
40 5 40 10 0 6 -18 10 -40 10 l-40 0 0 40 0 40 40 0 c22 0 40 5 40 10 0 6 -25
10 -55 10 l-55 0 0 -105z"/>
<path d="M1700 2345 c0 -87 3 -105 15 -105 12 0 15 18 15 105 0 87 -3 105 -15
105 -12 0 -15 -18 -15 -105z"/>
<path d="M1824 2438 c-50 -24 -61 -131 -19 -173 28 -29 80 -33 111 -11 25 19
13 29 -20 17 -60 -23 -105 32 -85 104 12 42 45 60 84 45 19 -7 25 -6 25 4 0
26 -56 34 -96 14z"/>
<path d="M1960 2345 c0 -87 3 -105 15 -105 11 0 15 12 15 50 l0 50 50 0 50 0
0 -50 c0 -27 5 -50 10 -50 6 0 10 42 10 105 0 59 -4 105 -9 105 -6 0 -11 -19
-13 -42 l-3 -43 -47 -3 -48 -3 0 45 c0 34 -4 46 -15 46 -12 0 -15 -18 -15
-105z"/>
<path d="M2170 2345 l0 -105 55 0 c65 0 74 17 13 22 -42 3 -43 4 -46 41 l-3
37 40 0 c51 0 54 18 4 22 -35 3 -38 6 -38 33 0 28 3 30 43 33 61 5 52 22 -13
22 l-55 0 0 -105z"/>
<path d="M2533 2433 c-28 -19 -30 -38 -3 -23 27 14 32 0 28 -81 -3 -58 -5 -64
-25 -67 -47 -7 -21 -22 37 -22 33 0 60 4 60 10 0 6 -11 10 -25 10 -25 0 -25 0
-25 95 0 101 -4 108 -47 78z"/>
<path d="M2681 2424 c-29 -37 -30 -135 -1 -164 25 -25 61 -26 90 -2 24 19 38
91 26 136 -15 60 -79 76 -115 30z m73 -10 c11 -10 16 -34 16 -69 0 -35 -5 -59
-16 -69 -37 -37 -68 -6 -68 69 0 75 31 106 68 69z"/>
<path d="M2851 2431 c-37 -37 -40 -134 -4 -173 21 -24 68 -23 93 2 16 16 20
33 20 85 0 52 -4 69 -20 85 -25 25 -64 26 -89 1z m76 -31 c17 -34 16 -91 -3
-118 -32 -46 -74 -15 -74 56 0 81 48 119 77 62z"/>
<path d="M3143 2443 c-7 -2 -13 -11 -13 -19 0 -10 6 -11 26 -4 19 7 31 7 40
-1 25 -21 15 -57 -31 -109 -25 -28 -43 -55 -40 -61 8 -12 125 -12 125 1 0 6
-20 10 -45 10 l-45 0 40 51 c62 78 52 141 -22 138 -13 0 -29 -3 -35 -6z"/>
<path d="M2415 1978 c-8 -28 -15 -70 -15 -93 0 -57 27 -145 45 -145 12 0 12 6
0 41 -8 23 -15 70 -15 104 0 34 7 81 15 104 12 35 12 41 0 41 -8 0 -20 -21
-30 -52z"/>
<path d="M3244 2008 c26 -92 29 -129 12 -195 -16 -65 -14 -92 5 -63 32 50 37
192 9 253 -16 33 -35 36 -26 5z"/>
<path d="M1226 1912 c-41 -112 -41 -112 -22 -112 8 0 17 14 21 31 7 29 9 30
53 27 40 -3 47 -6 52 -28 3 -14 13 -26 23 -28 14 -3 11 14 -21 102 -48 137
-58 138 -106 8z m63 36 c25 -68 25 -68 -14 -68 -31 0 -36 3 -30 18 4 9 12 29
17 45 12 33 16 34 27 5z"/>
<path d="M1400 1905 c0 -87 3 -105 15 -105 11 0 15 12 15 45 0 45 0 45 35 45
19 0 35 5 35 10 0 6 -16 10 -35 10 -34 0 -35 1 -35 40 l0 40 40 0 c22 0 40 5
40 10 0 6 -25 10 -55 10 l-55 0 0 -105z"/>
<path d="M1550 1905 c0 -87 3 -105 15 -105 11 0 15 12 15 45 l0 45 40 0 c22 0
40 5 40 10 0 6 -18 10 -40 10 l-40 0 0 40 0 40 40 0 c22 0 40 5 40 10 0 6 -25
10 -55 10 l-55 0 0 -105z"/>
<path d="M1700 1905 c0 -87 3 -105 15 -105 12 0 15 18 15 105 0 87 -3 105 -15
105 -12 0 -15 -18 -15 -105z"/>
<path d="M1824 1998 c-50 -24 -61 -131 -19 -173 28 -29 80 -33 111 -11 25 19
13 29 -20 17 -60 -23 -105 32 -85 104 12 42 45 60 84 45 19 -7 25 -6 25 4 0
26 -56 34 -96 14z"/>
<path d="M1960 1905 c0 -87 3 -105 15 -105 11 0 15 12 15 50 l0 50 50 0 50 0
0 -50 c0 -27 5 -50 10 -50 6 0 10 42 10 105 0 59 -4 105 -9 105 -6 0 -11 -19
-13 -42 l-3 -43 -47 -3 -48 -3 0 45 c0 34 -4 46 -15 46 -12 0 -15 -18 -15
-105z"/>
<path d="M2170 1905 l0 -105 55 0 c65 0 74 17 13 22 -42 3 -43 4 -46 41 l-3
37 40 0 c51 0 54 18 4 22 -35 3 -38 6 -38 33 0 28 3 30 43 33 61 5 52 22 -13
22 l-55 0 0 -105z"/>
<path d="M2510 1960 c0 -49 1 -50 29 -50 31 0 61 -22 61 -44 0 -7 -9 -21 -21
-31 -17 -16 -25 -17 -50 -8 -23 9 -29 9 -29 -2 0 -28 63 -34 98 -9 16 11 22
25 22 54 0 43 -18 60 -64 60 -22 0 -26 4 -26 30 0 28 2 30 40 30 22 0 40 5 40
10 0 6 -22 10 -50 10 l-50 0 0 -50z"/>
<path d="M2681 1984 c-29 -37 -30 -135 -1 -164 25 -25 61 -26 90 -2 24 19 38
91 26 136 -15 60 -79 76 -115 30z m73 -10 c11 -10 16 -34 16 -69 0 -35 -5 -59
-16 -69 -37 -37 -68 -6 -68 69 0 75 31 106 68 69z"/>
<path d="M2983 1998 c-57 -74 -142 -208 -131 -208 10 1 142 179 156 212 6 13
-15 9 -25 -4z"/>
<path d="M3095 1986 c-21 -22 -25 -34 -25 -89 0 -49 4 -68 18 -80 42 -38 112
-5 112 52 0 44 -26 64 -72 58 -36 -5 -38 -4 -32 16 9 33 35 49 67 43 20 -4 27
-2 25 7 -3 6 -19 13 -36 15 -23 2 -38 -4 -57 -22z m59 -82 c20 -8 21 -57 1
-74 -21 -17 -52 -3 -60 27 -9 37 21 61 59 47z"/>
<path d="M2836 1984 c-29 -29 -11 -84 27 -84 30 0 47 18 47 50 0 47 -42 66
-74 34z m49 -34 c0 -15 -6 -26 -16 -28 -19 -3 -31 21 -22 43 9 25 38 13 38
-15z"/>
<path d="M2962 1888 c-7 -7 -12 -27 -12 -45 0 -27 5 -34 25 -39 32 -8 55 11
55 45 0 30 -16 51 -40 51 -9 0 -21 -5 -28 -12z m48 -38 c0 -23 -4 -30 -20 -30
-16 0 -20 7 -20 30 0 23 4 30 20 30 16 0 20 -7 20 -30z"/>
<path d="M2415 1548 c-8 -28 -15 -70 -15 -93 0 -57 27 -145 45 -145 12 0 12 6
0 41 -8 23 -15 70 -15 104 0 34 7 81 15 104 12 35 12 41 0 41 -8 0 -20 -21
-30 -52z"/>
<path d="M4710 1598 c0 -2 7 -21 15 -43 19 -53 19 -142 0 -195 -17 -47 -11
-66 10 -36 21 28 37 122 30 169 -9 54 -31 107 -44 107 -6 0 -11 -1 -11 -2z"/>
<path d="M3120 1480 c0 -67 4 -110 10 -110 6 0 10 43 10 110 0 67 -4 110 -10
110 -6 0 -10 -43 -10 -110z"/>
<path d="M3190 1480 c0 -91 3 -110 15 -110 12 0 15 19 15 110 0 91 -3 110 -15
110 -12 0 -15 -19 -15 -110z"/>
<path d="M4040 1480 c0 -91 3 -110 15 -110 12 0 15 19 15 110 0 91 -3 110 -15
110 -12 0 -15 -19 -15 -110z"/>
<path d="M4210 1550 c0 -39 -1 -39 -30 -33 -44 8 -70 -18 -70 -73 0 -25 6 -49
16 -58 19 -19 55 -21 73 -3 11 10 14 10 18 0 14 -38 23 0 23 97 0 91 -3 110
-15 110 -11 0 -15 -11 -15 -40z m-19 -60 c13 -7 19 -21 19 -45 0 -30 -20 -55
-44 -55 -13 0 -36 34 -36 55 0 13 7 31 16 39 18 19 20 19 45 6z"/>
<path d="M4390 1510 c0 -47 4 -80 10 -80 6 0 10 33 10 80 0 47 -4 80 -10 80
-6 0 -10 -33 -10 -80z"/>
<path d="M1226 1482 c-41 -112 -41 -112 -22 -112 8 0 17 14 21 31 7 29 9 30
53 27 40 -3 47 -6 52 -28 3 -14 13 -26 23 -28 14 -3 11 14 -21 102 -48 137
-58 138 -106 8z m63 36 c25 -68 25 -68 -14 -68 -31 0 -36 3 -30 18 4 9 12 29
17 45 12 33 16 34 27 5z"/>
<path d="M1400 1475 c0 -87 3 -105 15 -105 11 0 15 12 15 45 0 45 0 45 35 45
19 0 35 5 35 10 0 6 -16 10 -35 10 -34 0 -35 1 -35 40 l0 40 40 0 c22 0 40 5
40 10 0 6 -25 10 -55 10 l-55 0 0 -105z"/>
<path d="M1550 1475 c0 -87 3 -105 15 -105 11 0 15 12 15 45 l0 45 40 0 c22 0
40 5 40 10 0 6 -18 10 -40 10 l-40 0 0 40 0 40 40 0 c22 0 40 5 40 10 0 6 -25
10 -55 10 l-55 0 0 -105z"/>
<path d="M1700 1475 c0 -87 3 -105 15 -105 12 0 15 18 15 105 0 87 -3 105 -15
105 -12 0 -15 -18 -15 -105z"/>
<path d="M1824 1568 c-50 -24 -61 -131 -19 -173 28 -29 80 -33 111 -11 25 19
13 29 -20 17 -60 -23 -105 32 -85 104 12 42 45 60 84 45 19 -7 25 -6 25 4 0
26 -56 34 -96 14z"/>
<path d="M1960 1475 c0 -87 3 -105 15 -105 11 0 15 12 15 50 l0 50 50 0 50 0
0 -50 c0 -27 5 -50 10 -50 6 0 10 42 10 105 0 59 -4 105 -9 105 -6 0 -11 -19
-13 -42 l-3 -43 -47 -3 -48 -3 0 45 c0 34 -4 46 -15 46 -12 0 -15 -18 -15
-105z"/>
<path d="M2170 1475 l0 -105 55 0 c65 0 74 17 13 22 -42 3 -43 4 -46 41 l-3
37 40 0 c51 0 54 18 4 22 -35 3 -38 6 -38 33 0 28 3 30 43 33 61 5 52 22 -13
22 l-55 0 0 -105z"/>
<path d="M2750 1475 c0 -63 4 -105 10 -105 6 0 10 23 10 50 l0 50 50 0 50 0 0
-50 c0 -38 4 -50 15 -50 12 0 15 18 15 105 0 87 -3 105 -15 105 -11 0 -15 -12
-15 -46 l0 -45 -47 3 -48 3 -3 43 c-2 23 -7 42 -13 42 -5 0 -9 -46 -9 -105z"/>
<path d="M2515 1487 c-17 -33 -17 -35 1 -65 10 -18 25 -32 32 -32 11 0 9 8 -6
32 l-21 32 20 33 c16 26 17 33 6 33 -7 0 -22 -15 -32 -33z"/>
<path d="M2582 1495 c-28 -35 -28 -47 3 -82 27 -31 35 -13 10 21 -13 17 -13
23 1 43 23 36 11 51 -14 18z"/>
<path d="M2960 1498 c-26 -28 -26 -82 0 -108 20 -20 63 -26 94 -14 28 11 17
26 -13 19 -34 -7 -71 9 -71 30 0 11 13 15 50 15 46 0 50 2 50 23 0 53 -72 76
-110 35z m78 -10 c21 -21 13 -28 -28 -28 -22 0 -40 4 -40 8 0 14 23 32 40 32
9 0 21 -5 28 -12z"/>
<path d="M3280 1500 c-45 -45 -13 -130 50 -130 41 0 70 31 70 75 0 44 -29 75
-70 75 -17 0 -39 -9 -50 -20z m80 -15 c7 -8 13 -26 13 -40 0 -57 -55 -72 -82
-24 -13 24 -13 29 2 53 19 29 48 34 67 11z"/>
<path d="M3500 1513 c0 -4 10 -37 22 -75 28 -86 49 -91 70 -15 l14 52 18 -52
c28 -83 44 -73 80 45 12 43 13 52 1 52 -8 0 -21 -24 -31 -57 l-17 -58 -19 58
c-11 31 -25 57 -32 57 -7 0 -19 -24 -26 -55 -7 -30 -16 -52 -21 -50 -4 3 -12
27 -19 55 -7 30 -17 50 -26 50 -8 0 -14 -3 -14 -7z"/>
<path d="M3762 1497 c-45 -48 -16 -127 48 -127 43 0 70 31 70 79 0 30 -6 44
-22 55 -32 23 -71 20 -96 -7z m82 -19 c21 -29 20 -41 -3 -69 -16 -21 -22 -22
-45 -11 -21 9 -26 19 -26 46 0 54 46 74 74 34z"/>
<path d="M3930 1445 c0 -43 4 -75 10 -75 6 0 10 21 10 47 0 50 22 86 46 76 8
-3 14 1 14 11 0 19 -31 21 -48 4 -9 -9 -12 -9 -12 0 0 7 -4 12 -10 12 -6 0
-10 -32 -10 -75z"/>
<path d="M4552 1513 c2 -5 10 -20 17 -35 12 -24 12 -31 -3 -53 -25 -38 -9 -46
20 -10 29 37 29 39 2 75 -19 26 -46 43 -36 23z"/>
<path d="M4612 1513 c2 -5 10 -20 17 -35 12 -24 12 -31 -3 -53 -25 -38 -9 -46
20 -10 13 17 24 32 24 35 0 13 -41 70 -51 70 -6 0 -9 -3 -7 -7z"/>
<path d="M4384 1399 c-10 -17 13 -36 27 -22 12 12 4 33 -11 33 -5 0 -12 -5
-16 -11z"/>
<path d="M2415 1108 c-8 -28 -15 -70 -15 -93 0 -57 27 -145 45 -145 12 0 12 6
0 41 -8 23 -15 70 -15 104 0 34 7 81 15 104 12 35 12 41 0 41 -8 0 -20 -21
-30 -52z"/>
<path d="M3164 1144 c30 -74 29 -182 0 -258 -5 -13 -3 -17 6 -14 22 7 38 68
38 143 0 75 -16 136 -38 143 -9 3 -11 -1 -6 -14z"/>
<path d="M2750 1040 c0 -67 4 -110 10 -110 6 0 10 5 10 10 0 6 7 6 18 -1 29
-18 68 -3 82 30 27 66 -19 128 -75 103 -25 -11 -25 -11 -25 33 0 25 -4 45 -10
45 -6 0 -10 -43 -10 -110z m88 8 c16 -16 15 -60 -2 -83 -12 -17 -18 -18 -40
-7 -21 9 -26 19 -26 46 0 46 40 72 68 44z"/>
<path d="M1226 1042 c-41 -112 -41 -112 -22 -112 8 0 17 14 21 31 7 29 9 30
53 27 40 -3 47 -6 52 -28 3 -14 13 -26 23 -28 14 -3 11 14 -21 102 -48 137
-58 138 -106 8z m63 36 c25 -68 25 -68 -14 -68 -31 0 -36 3 -30 18 4 9 12 29
17 45 12 33 16 34 27 5z"/>
<path d="M1400 1035 c0 -87 3 -105 15 -105 11 0 15 12 15 45 0 45 0 45 35 45
19 0 35 5 35 10 0 6 -16 10 -35 10 -34 0 -35 1 -35 40 l0 40 40 0 c22 0 40 5
40 10 0 6 -25 10 -55 10 l-55 0 0 -105z"/>
<path d="M1550 1035 c0 -87 3 -105 15 -105 11 0 15 12 15 45 l0 45 40 0 c22 0
40 5 40 10 0 6 -18 10 -40 10 l-40 0 0 40 0 40 40 0 c22 0 40 5 40 10 0 6 -25
10 -55 10 l-55 0 0 -105z"/>
<path d="M1700 1035 c0 -87 3 -105 15 -105 12 0 15 18 15 105 0 87 -3 105 -15
105 -12 0 -15 -18 -15 -105z"/>
<path d="M1824 1128 c-50 -24 -61 -131 -19 -173 28 -29 80 -33 111 -11 25 19
13 29 -20 17 -60 -23 -105 32 -85 104 12 42 45 60 84 45 19 -7 25 -6 25 4 0
26 -56 34 -96 14z"/>
<path d="M1960 1035 c0 -87 3 -105 15 -105 11 0 15 12 15 50 l0 50 50 0 50 0
0 -50 c0 -27 5 -50 10 -50 6 0 10 42 10 105 0 59 -4 105 -9 105 -6 0 -11 -19
-13 -42 l-3 -43 -47 -3 -48 -3 0 45 c0 34 -4 46 -15 46 -12 0 -15 -18 -15
-105z"/>
<path d="M2170 1035 l0 -105 55 0 c65 0 74 17 13 22 -42 3 -43 4 -46 41 l-3
37 40 0 c51 0 54 18 4 22 -35 3 -38 6 -38 33 0 28 3 30 43 33 61 5 52 22 -13
22 l-55 0 0 -105z"/>
<path d="M2515 1047 c-17 -33 -17 -35 1 -65 10 -18 25 -32 32 -32 11 0 9 8 -6
32 l-21 32 20 33 c16 26 17 33 6 33 -7 0 -22 -15 -32 -33z"/>
<path d="M2582 1055 c-28 -35 -28 -47 3 -82 27 -31 35 -13 10 21 -13 17 -13
23 1 43 23 36 11 51 -14 18z"/>
<path d="M3000 1072 c0 -4 7 -18 16 -31 16 -22 16 -26 -1 -53 -20 -34 -11 -53
12 -23 31 42 32 50 11 83 -19 30 -38 42 -38 24z"/>
<path d="M3060 1072 c0 -4 7 -18 16 -31 16 -22 16 -26 -1 -53 -20 -34 -11 -53
12 -23 31 42 32 50 11 83 -19 30 -38 42 -38 24z"/>
<path d="M150 355 c0 -63 4 -105 10 -105 6 0 10 20 10 45 l0 45 40 0 c51 0 53
18 3 22 -36 3 -38 5 -38 38 0 34 1 35 43 38 61 5 52 22 -13 22 l-55 0 0 -105z"/>
<path d="M300 355 c0 -87 3 -105 15 -105 12 0 15 18 15 105 0 87 -3 105 -15
105 -12 0 -15 -18 -15 -105z"/>
<path d="M380 356 c0 -88 3 -106 15 -106 12 0 15 16 15 88 l0 87 48 -85 c26
-48 55 -86 65 -88 15 -3 17 7 17 102 0 64 -4 106 -10 106 -6 0 -10 -34 -10
-82 0 -95 -4 -94 -60 9 -25 48 -43 69 -58 71 -21 3 -22 1 -22 -102z"/>
</g>
</svg>
