<svg width="150" height="150" viewBox="0 0 150 150" fill="none" xmlns="http://www.w3.org/2000/svg">
<path d="M40.6569 81.3138C63.111 81.3138 81.3138 63.111 81.3138 40.6569C81.3138 18.2027 63.111 0 40.6569 0C18.2027 0 0 18.2027 0 40.6569C0 63.111 18.2027 81.3138 40.6569 81.3138Z" fill="url(#paint0_radial)"/>
<path d="M55.7169 67.8126C54.7033 66.3544 55.0643 64.3509 56.5224 63.3374C57.6881 62.5273 58.8182 61.6279 59.8816 60.6643C61.1973 59.472 63.2303 59.5718 64.4231 60.8878C65.6154 62.2034 65.5156 64.2368 64.1996 65.4293C62.9321 66.5779 61.5839 67.6506 60.1921 68.6178C58.7342 69.6317 56.7301 69.2707 55.7169 67.8126Z" fill="#ADEDE3"/>
<path d="M67.4314 56.6217C65.8212 55.8726 65.1231 53.9606 65.8719 52.3503C66.8102 50.3334 67.5049 48.1906 67.937 45.9819C68.2779 44.2389 69.9674 43.1026 71.7097 43.4438C73.4526 43.7848 74.5887 45.4739 74.2477 47.2165C73.7159 49.9348 72.8595 52.5747 71.7025 55.0622C70.9549 56.6698 69.0441 57.3717 67.4314 56.6217Z" fill="#ADEDE3"/>
<path d="M27.3524 57.5744L15.4558 43.9591C13.703 41.9532 13.9086 38.9066 15.9142 37.1541C17.9201 35.4013 20.967 35.6069 22.7192 37.6125L31.4314 47.5836L59.0389 23.2926C61.0385 21.5326 64.086 21.728 65.8457 23.7273C67.6053 25.7272 67.4105 28.7744 65.4109 30.5341L34.17 58.0218C32.1665 59.785 29.1085 59.5845 27.3524 57.5744Z" fill="white"/>
<path d="M109.343 150C131.798 150 150 131.798 150 109.343C150 86.8892 131.798 68.6865 109.343 68.6865C86.8892 68.6865 68.6865 86.8892 68.6865 109.343C68.6865 131.798 86.8892 150 109.343 150Z" fill="url(#paint1_radial)"/>
<path d="M136.657 104.269C136.368 102.705 135.946 101.165 135.402 99.6928C134.787 98.027 135.639 96.178 137.305 95.5631C138.969 94.9472 140.819 95.7994 141.434 97.4655C142.105 99.2808 142.625 101.176 142.98 103.1C143.303 104.846 142.15 106.523 140.404 106.846C138.67 107.169 136.982 106.026 136.657 104.269Z" fill="#FDB0BF"/>
<path d="M137.713 122.219C136.03 121.653 135.124 119.83 135.69 118.147C136.046 117.086 136.342 115.992 136.567 114.893C136.924 113.154 138.623 112.033 140.362 112.39C142.102 112.747 143.223 114.446 142.866 116.186C142.588 117.539 142.225 118.888 141.785 120.195C141.222 121.873 139.404 122.786 137.713 122.219Z" fill="#FDB0BF"/>
<path d="M116.164 109.343L128.526 96.9801C130.41 95.0968 130.41 92.043 128.526 90.1596C126.643 88.2762 123.589 88.2762 121.706 90.1596L109.343 102.522L96.9803 90.1596C95.097 88.2762 92.0432 88.2762 90.1598 90.1596C88.2762 92.043 88.2762 95.0968 90.1598 96.9801L102.523 109.343L90.1598 121.706C88.2762 123.589 88.2762 126.643 90.1598 128.526C91.1014 129.468 92.3357 129.939 93.5701 129.939C94.8044 129.939 96.0388 129.468 96.9803 128.526L109.343 116.163L121.706 128.526C122.647 129.468 123.882 129.939 125.116 129.939C126.35 129.939 127.585 129.468 128.526 128.526C130.41 126.643 130.41 123.589 128.526 121.706L116.164 109.343Z" fill="white"/>
<defs>
<radialGradient id="paint0_radial" cx="0" cy="0" r="1" gradientUnits="userSpaceOnUse" gradientTransform="translate(40.6569 40.6569) scale(40.6569)">
<stop offset="0.0206" stop-color="#77E4D3"/>
<stop offset="1" stop-color="#01C2A0"/>
</radialGradient>
<radialGradient id="paint1_radial" cx="0" cy="0" r="1" gradientUnits="userSpaceOnUse" gradientTransform="translate(109.343 109.343) scale(40.6569)">
<stop stop-color="#FD869C"/>
<stop offset="0.9788" stop-color="#F3385D"/>
</radialGradient>
</defs>
</svg>
